<svg width="477" height="345" viewBox="0 0 477 345" fill="none" xmlns="http://www.w3.org/2000/svg">
<path d="M476.311 341.926H0.689306C0.506491 341.926 0.331163 341.853 0.201893 341.724C0.0726226 341.594 0 341.419 0 341.236C0 341.054 0.0726226 340.878 0.201893 340.749C0.331163 340.62 0.506491 340.547 0.689306 340.547H476.311C476.494 340.547 476.669 340.62 476.798 340.749C476.927 340.878 477 341.054 477 341.236C477 341.419 476.927 341.594 476.798 341.724C476.669 341.853 476.494 341.926 476.311 341.926Z" fill="#CCCCCC"/>
<path d="M429.234 221.709H149.376C148.187 221.709 147.048 222.181 146.208 223.022C145.367 223.862 144.895 225.002 144.895 226.19C144.895 227.378 145.367 228.518 146.208 229.358C147.048 230.198 148.187 230.67 149.376 230.67H157.303V337.858C157.303 339.046 157.775 340.185 158.615 341.026C159.455 341.866 160.595 342.338 161.783 342.338C162.972 342.338 164.111 341.866 164.951 341.026C165.792 340.185 166.264 339.046 166.264 337.858L166.332 230.67H411.657V337.858C411.657 339.046 412.129 340.185 412.969 341.026C413.809 341.866 414.949 342.338 416.137 342.338C417.326 342.338 418.465 341.866 419.305 341.026C420.146 340.185 420.618 339.046 420.618 337.858V233.033L421.921 230.67H429.234C430.422 230.67 431.562 230.198 432.402 229.358C433.243 228.518 433.715 227.378 433.715 226.19C433.715 225.002 433.243 223.862 432.402 223.022C431.562 222.181 430.422 221.709 429.234 221.709Z" fill="#CCCCCC"/>
<path d="M304.531 224.054H219.759C218.118 224.052 216.544 223.4 215.383 222.239C214.223 221.078 213.57 219.505 213.568 217.863V171.191C213.57 169.549 214.223 167.976 215.383 166.815C216.544 165.654 218.118 165.001 219.759 165H304.531C306.173 165.001 307.747 165.654 308.907 166.815C310.068 167.976 310.721 169.549 310.723 171.191V217.863C310.721 219.505 310.068 221.078 308.907 222.239C307.747 223.4 306.173 224.052 304.531 224.054Z" fill="#3F3D56"/>
<path d="M304.531 169.764H219.76C219.382 169.765 219.019 169.916 218.752 170.183C218.484 170.451 218.334 170.813 218.333 171.191V217.864C218.334 218.242 218.484 218.605 218.752 218.872C219.019 219.14 219.382 219.29 219.76 219.291H304.531C304.909 219.29 305.272 219.14 305.539 218.872C305.806 218.605 305.957 218.242 305.958 217.864V171.191C305.957 170.813 305.806 170.451 305.539 170.183C305.272 169.916 304.909 169.765 304.531 169.764Z" fill="white"/>
<path d="M269.375 202.809C269.375 202.809 259.227 200.47 253.646 204.757C248.064 209.044 260.749 218.788 260.749 218.788L269.375 202.809Z" fill="#2F2E41"/>
<path d="M262.642 198.39C267.929 198.39 272.215 194.104 272.215 188.818C272.215 183.531 267.929 179.245 262.642 179.245C257.356 179.245 253.07 183.531 253.07 188.818C253.07 194.104 257.356 198.39 262.642 198.39Z" fill="#A0616A"/>
<path d="M255.24 175.38C255.879 174.297 256.804 173.411 257.914 172.82C259.024 172.23 260.276 171.957 261.531 172.033C262.844 172.198 264.125 172.557 265.333 173.097L271.591 175.538C273.21 176.17 274.984 176.944 275.686 178.534C276.338 180.009 275.852 181.713 275.359 183.249L273.018 190.551C272.759 188.899 272.314 187.281 271.691 185.728C271.059 184.165 269.916 182.861 268.448 182.03C266.823 181.196 264.907 181.214 263.082 181.302C260.498 181.426 257.688 181.755 255.852 183.578C254.877 184.613 254.217 185.903 253.946 187.299C253.681 188.688 253.547 190.098 253.547 191.512C252.487 189.69 251.594 187.777 250.88 185.794C250.292 184.318 249.957 182.753 249.889 181.165C249.827 179.564 250.358 177.997 251.381 176.763C251.9 176.16 252.577 175.714 253.335 175.475C254.094 175.236 254.905 175.214 255.675 175.411L255.24 175.38Z" fill="#2F2E41"/>
<path d="M285.499 211.109C285.409 210.786 285.226 210.496 284.972 210.277C284.718 210.057 284.405 209.918 284.072 209.875C284.05 209.86 284.027 209.846 284.003 209.834L269.713 201.825C269.305 201.597 268.824 201.534 268.371 201.651C267.918 201.767 267.528 202.054 267.281 202.451L263.373 208.779L257.392 202.799C257.09 202.497 256.691 202.311 256.266 202.274C255.84 202.236 255.415 202.35 255.065 202.595L243.32 210.82C243.3 210.82 243.279 210.827 243.259 210.827C242.696 210.92 242.183 211.203 241.803 211.628C241.424 212.053 241.2 212.594 241.17 213.163L240.866 219.291H287.767L285.499 211.109Z" fill="#2596BE"/>
<path d="M311.675 218.339H302.626C302.626 218.087 302.526 217.844 302.347 217.666C302.169 217.487 301.927 217.387 301.674 217.387H298.816C298.564 217.387 298.322 217.487 298.143 217.666C297.964 217.844 297.864 218.087 297.864 218.339H295.007C295.007 218.087 294.906 217.844 294.728 217.666C294.549 217.487 294.307 217.387 294.054 217.387H291.197C290.944 217.387 290.702 217.487 290.523 217.666C290.344 217.844 290.244 218.087 290.244 218.339H287.387C287.387 218.087 287.286 217.844 287.108 217.666C286.929 217.487 286.687 217.387 286.434 217.387H283.577C283.324 217.387 283.082 217.487 282.903 217.666C282.724 217.844 282.624 218.087 282.624 218.339H279.767C279.767 218.087 279.666 217.844 279.488 217.666C279.309 217.487 279.067 217.387 278.814 217.387H275.957C275.704 217.387 275.462 217.487 275.283 217.666C275.104 217.844 275.004 218.087 275.004 218.339H272.147C272.147 218.087 272.046 217.844 271.868 217.666C271.689 217.487 271.447 217.387 271.194 217.387H268.337C268.084 217.387 267.842 217.487 267.663 217.666C267.484 217.844 267.384 218.087 267.384 218.339H264.527C264.527 218.087 264.426 217.844 264.248 217.666C264.069 217.487 263.827 217.387 263.574 217.387H260.717C260.464 217.387 260.222 217.487 260.043 217.666C259.865 217.844 259.764 218.087 259.764 218.339H256.907C256.907 218.087 256.806 217.844 256.628 217.666C256.449 217.487 256.207 217.387 255.954 217.387H253.097C252.844 217.387 252.602 217.487 252.423 217.666C252.245 217.844 252.144 218.087 252.144 218.339H249.287C249.287 218.087 249.186 217.844 249.008 217.666C248.829 217.487 248.587 217.387 248.334 217.387H245.477C245.224 217.387 244.982 217.487 244.803 217.666C244.625 217.844 244.524 218.087 244.524 218.339H241.667C241.667 218.087 241.566 217.844 241.388 217.666C241.209 217.487 240.967 217.387 240.714 217.387H237.857C237.604 217.387 237.362 217.487 237.183 217.666C237.005 217.844 236.904 218.087 236.904 218.339H234.047C234.047 218.087 233.946 217.844 233.768 217.666C233.589 217.487 233.347 217.387 233.094 217.387H230.237C229.984 217.387 229.742 217.487 229.563 217.666C229.385 217.844 229.284 218.087 229.284 218.339H226.427C226.427 218.087 226.326 217.844 226.148 217.666C225.969 217.487 225.727 217.387 225.474 217.387H222.617C222.364 217.387 222.122 217.487 221.943 217.666C221.765 217.844 221.664 218.087 221.664 218.339H212.616C211.859 218.34 211.133 218.642 210.598 219.178C210.063 219.714 209.763 220.44 209.763 221.197C209.763 221.954 210.063 222.68 210.598 223.216C211.133 223.752 211.859 224.053 212.616 224.054H311.675C312.433 224.054 313.16 223.753 313.696 223.217C314.232 222.681 314.533 221.955 314.533 221.197C314.533 220.439 314.232 219.712 313.696 219.176C313.16 218.64 312.433 218.339 311.675 218.339Z" fill="#3F3D56"/>
<path d="M197.885 201.745V220.719H150.349C149.076 220.763 147.806 220.55 146.617 220.094C145.427 219.637 144.341 218.945 143.425 218.06C142.508 217.175 141.779 216.114 141.281 214.941C140.783 213.768 140.527 212.506 140.527 211.232C140.527 209.957 140.783 208.696 141.281 207.523C141.779 206.35 142.508 205.289 143.425 204.404C144.341 203.519 145.427 202.827 146.617 202.37C147.806 201.913 149.076 201.701 150.349 201.745H197.885Z" fill="#F2F2F2"/>
<path d="M199.053 220.573C199.053 220.766 198.976 220.952 198.839 221.089C198.702 221.226 198.517 221.302 198.323 221.302H149.503C146.851 221.302 144.308 220.249 142.433 218.374C140.558 216.499 139.505 213.956 139.505 211.305C139.505 208.653 140.558 206.11 142.433 204.235C144.308 202.36 146.851 201.307 149.503 201.307H198.323C198.517 201.307 198.702 201.384 198.839 201.521C198.976 201.658 199.053 201.843 199.053 202.037C199.053 202.23 198.976 202.416 198.839 202.553C198.702 202.69 198.517 202.767 198.323 202.767H149.503C147.24 202.769 145.07 203.669 143.47 205.27C141.871 206.871 140.972 209.042 140.972 211.305C140.972 213.568 141.871 215.738 143.47 217.339C145.07 218.94 147.24 219.841 149.503 219.843H198.323C198.517 219.843 198.702 219.92 198.839 220.057C198.976 220.194 199.053 220.379 199.053 220.573Z" fill="#2596BE"/>
<path d="M197.885 206.124H146.803C146.783 206.124 146.764 206.12 146.746 206.113C146.729 206.105 146.712 206.095 146.699 206.081C146.685 206.068 146.674 206.051 146.667 206.034C146.659 206.016 146.656 205.997 146.656 205.978C146.656 205.958 146.659 205.939 146.667 205.921C146.674 205.904 146.685 205.888 146.699 205.874C146.712 205.86 146.729 205.85 146.746 205.842C146.764 205.835 146.783 205.831 146.803 205.832H197.885C197.924 205.832 197.961 205.847 197.988 205.875C198.015 205.902 198.03 205.939 198.03 205.978C198.03 206.016 198.015 206.053 197.988 206.08C197.961 206.108 197.924 206.123 197.885 206.124Z" fill="#CCCCCC"/>
<path d="M197.885 209.626H146.803C146.783 209.627 146.764 209.623 146.746 209.616C146.729 209.608 146.712 209.598 146.699 209.584C146.685 209.57 146.674 209.554 146.667 209.537C146.659 209.519 146.656 209.5 146.656 209.48C146.656 209.461 146.659 209.442 146.667 209.424C146.674 209.407 146.685 209.39 146.699 209.377C146.712 209.363 146.729 209.353 146.746 209.345C146.764 209.338 146.783 209.334 146.803 209.334H197.885C197.924 209.335 197.961 209.35 197.988 209.378C198.015 209.405 198.03 209.442 198.03 209.48C198.03 209.519 198.015 209.556 197.988 209.583C197.961 209.611 197.924 209.626 197.885 209.626Z" fill="#CCCCCC"/>
<path d="M197.885 213.129H146.803C146.783 213.129 146.764 213.126 146.746 213.118C146.729 213.111 146.712 213.1 146.699 213.087C146.685 213.073 146.674 213.057 146.667 213.039C146.659 213.022 146.656 213.003 146.656 212.983C146.656 212.964 146.659 212.945 146.667 212.927C146.674 212.909 146.685 212.893 146.699 212.88C146.712 212.866 146.729 212.855 146.746 212.848C146.764 212.841 146.783 212.837 146.803 212.837H197.885C197.924 212.838 197.961 212.853 197.988 212.88C198.015 212.908 198.03 212.945 198.03 212.983C198.03 213.022 198.015 213.059 197.988 213.086C197.961 213.113 197.924 213.129 197.885 213.129Z" fill="#CCCCCC"/>
<path d="M197.885 216.632H146.803C146.783 216.632 146.764 216.628 146.746 216.621C146.729 216.614 146.712 216.603 146.699 216.59C146.685 216.576 146.674 216.56 146.667 216.542C146.659 216.524 146.656 216.505 146.656 216.486C146.656 216.467 146.659 216.448 146.667 216.43C146.674 216.412 146.685 216.396 146.699 216.383C146.712 216.369 146.729 216.358 146.746 216.351C146.764 216.344 146.783 216.34 146.803 216.34H197.885C197.924 216.34 197.961 216.356 197.988 216.383C198.015 216.411 198.03 216.448 198.03 216.486C198.03 216.525 198.015 216.562 197.988 216.589C197.961 216.616 197.924 216.632 197.885 216.632Z" fill="#CCCCCC"/>
<path d="M188.924 181.755V200.729H141.388C140.115 200.773 138.845 200.561 137.656 200.104C136.466 199.647 135.38 198.955 134.464 198.07C133.547 197.185 132.818 196.124 132.32 194.951C131.822 193.778 131.566 192.516 131.566 191.242C131.566 189.968 131.822 188.706 132.32 187.533C132.818 186.36 133.547 185.299 134.464 184.414C135.38 183.529 136.466 182.837 137.656 182.38C138.845 181.923 140.115 181.711 141.388 181.755H188.924Z" fill="#F2F2F2"/>
<path d="M190.092 200.583C190.092 200.776 190.015 200.962 189.878 201.099C189.741 201.236 189.556 201.313 189.362 201.313H140.542C139.229 201.313 137.929 201.054 136.716 200.552C135.503 200.049 134.401 199.313 133.472 198.384C132.544 197.456 131.807 196.354 131.305 195.141C130.803 193.928 130.544 192.628 130.544 191.315C130.544 190.002 130.803 188.702 131.305 187.489C131.807 186.276 132.544 185.174 133.472 184.246C134.401 183.317 135.503 182.581 136.716 182.078C137.929 181.576 139.229 181.317 140.542 181.317H189.362C189.556 181.317 189.741 181.394 189.878 181.531C190.015 181.668 190.092 181.854 190.092 182.047C190.092 182.241 190.015 182.426 189.878 182.563C189.741 182.7 189.556 182.777 189.362 182.777H140.542C138.279 182.779 136.109 183.679 134.509 185.28C132.91 186.881 132.011 189.052 132.011 191.315C132.011 193.578 132.91 195.749 134.509 197.35C136.109 198.951 138.279 199.851 140.542 199.853H189.362C189.556 199.853 189.741 199.93 189.878 200.067C190.015 200.204 190.092 200.389 190.092 200.583Z" fill="#3F3D56"/>
<path d="M188.924 186.134H137.842C137.822 186.134 137.803 186.13 137.785 186.123C137.768 186.116 137.751 186.105 137.738 186.091C137.724 186.078 137.713 186.062 137.706 186.044C137.698 186.026 137.695 186.007 137.695 185.988C137.695 185.968 137.698 185.949 137.706 185.932C137.713 185.914 137.724 185.898 137.738 185.884C137.751 185.871 137.768 185.86 137.785 185.853C137.803 185.845 137.822 185.842 137.842 185.842H188.924C188.963 185.842 189 185.857 189.027 185.885C189.054 185.912 189.069 185.949 189.069 185.988C189.069 186.026 189.054 186.063 189.027 186.091C189 186.118 188.963 186.133 188.924 186.134Z" fill="#CCCCCC"/>
<path d="M188.924 189.637H137.842C137.822 189.637 137.803 189.633 137.785 189.626C137.768 189.618 137.751 189.608 137.738 189.594C137.724 189.581 137.713 189.564 137.706 189.547C137.698 189.529 137.695 189.51 137.695 189.491C137.695 189.471 137.698 189.452 137.706 189.434C137.713 189.417 137.724 189.401 137.738 189.387C137.751 189.373 137.768 189.363 137.785 189.355C137.803 189.348 137.822 189.344 137.842 189.345H188.924C188.963 189.345 189 189.36 189.027 189.388C189.054 189.415 189.069 189.452 189.069 189.491C189.069 189.529 189.054 189.566 189.027 189.593C189 189.621 188.963 189.636 188.924 189.637Z" fill="#CCCCCC"/>
<path d="M188.924 193.139H137.842C137.822 193.139 137.803 193.136 137.785 193.129C137.768 193.121 137.751 193.111 137.738 193.097C137.724 193.083 137.713 193.067 137.706 193.049C137.698 193.032 137.695 193.013 137.695 192.993C137.695 192.974 137.698 192.955 137.706 192.937C137.713 192.92 137.724 192.903 137.738 192.89C137.751 192.876 137.768 192.866 137.785 192.858C137.803 192.851 137.822 192.847 137.842 192.847H188.924C188.963 192.848 189 192.863 189.027 192.891C189.054 192.918 189.069 192.955 189.069 192.993C189.069 193.032 189.054 193.069 189.027 193.096C189 193.124 188.963 193.139 188.924 193.139Z" fill="#CCCCCC"/>
<path d="M188.924 196.642H137.842C137.822 196.642 137.803 196.639 137.785 196.631C137.768 196.624 137.751 196.613 137.738 196.6C137.724 196.586 137.713 196.57 137.706 196.552C137.698 196.534 137.695 196.515 137.695 196.496C137.695 196.477 137.698 196.458 137.706 196.44C137.713 196.422 137.724 196.406 137.738 196.393C137.751 196.379 137.768 196.368 137.785 196.361C137.803 196.354 137.822 196.35 137.842 196.35H188.924C188.963 196.35 189 196.366 189.027 196.393C189.054 196.421 189.069 196.458 189.069 196.496C189.069 196.535 189.054 196.572 189.027 196.599C189 196.626 188.963 196.642 188.924 196.642Z" fill="#CCCCCC"/>
<path d="M244.223 288.16V271.616C244.223 270.885 243.933 270.184 243.416 269.667C242.899 269.15 242.197 268.859 241.466 268.859H178.739C178.008 268.859 177.307 269.15 176.79 269.667C176.273 270.184 175.982 270.885 175.982 271.616V288.16H244.223Z" fill="#CCCCCC"/>
<path d="M244.223 294.364H175.982V315.732H244.223V294.364Z" fill="#CCCCCC"/>
<path d="M175.982 321.936V338.479C175.982 339.21 176.273 339.912 176.79 340.429C177.307 340.946 178.008 341.236 178.739 341.236H241.466C242.197 341.236 242.899 340.946 243.416 340.429C243.933 339.912 244.223 339.21 244.223 338.479V321.936H175.982Z" fill="#CCCCCC"/>
<path d="M209.758 281.267C210.9 281.267 211.826 280.341 211.826 279.199C211.826 278.057 210.9 277.131 209.758 277.131C208.616 277.131 207.69 278.057 207.69 279.199C207.69 280.341 208.616 281.267 209.758 281.267Z" fill="white"/>
<path d="M209.758 308.839C210.9 308.839 211.826 307.913 211.826 306.771C211.826 305.629 210.9 304.703 209.758 304.703C208.616 304.703 207.69 305.629 207.69 306.771C207.69 307.913 208.616 308.839 209.758 308.839Z" fill="white"/>
<path d="M209.869 335.827C211.011 335.827 211.937 334.902 211.937 333.759C211.937 332.617 211.011 331.692 209.869 331.692C208.727 331.692 207.801 332.617 207.801 333.759C207.801 334.902 208.727 335.827 209.869 335.827Z" fill="white"/>
<path d="M236.487 249.996V268.97H188.95C187.677 269.014 186.407 268.802 185.218 268.345C184.028 267.888 182.942 267.197 182.026 266.311C181.109 265.426 180.38 264.365 179.882 263.192C179.384 262.019 179.128 260.758 179.128 259.483C179.128 258.209 179.384 256.948 179.882 255.775C180.38 254.601 181.109 253.541 182.026 252.655C182.942 251.77 184.028 251.078 185.218 250.622C186.407 250.165 187.677 249.952 188.95 249.996H236.487Z" fill="#F2F2F2"/>
<path d="M237.654 268.824C237.654 269.018 237.577 269.203 237.44 269.34C237.304 269.477 237.118 269.554 236.924 269.554H188.104C186.79 269.555 185.489 269.297 184.275 268.795C183.061 268.293 181.958 267.557 181.029 266.629C180.1 265.7 179.363 264.598 178.86 263.384C178.357 262.171 178.098 260.87 178.098 259.556C178.098 258.243 178.357 256.942 178.86 255.728C179.363 254.515 180.1 253.412 181.029 252.484C181.958 251.555 183.061 250.819 184.275 250.317C185.489 249.815 186.79 249.558 188.104 249.559H236.924C237.118 249.559 237.304 249.635 237.44 249.772C237.577 249.909 237.654 250.095 237.654 250.288C237.654 250.482 237.577 250.668 237.44 250.804C237.304 250.941 237.118 251.018 236.924 251.018H188.104C185.841 251.02 183.671 251.921 182.071 253.522C180.472 255.123 179.573 257.293 179.573 259.556C179.573 261.819 180.472 263.99 182.071 265.591C183.671 267.192 185.841 268.092 188.104 268.094H236.924C237.118 268.094 237.304 268.171 237.44 268.308C237.577 268.445 237.654 268.631 237.654 268.824Z" fill="#3F3D56"/>
<path d="M236.487 254.375H185.404C185.384 254.375 185.365 254.371 185.348 254.364C185.33 254.357 185.313 254.346 185.3 254.333C185.286 254.319 185.275 254.303 185.268 254.285C185.261 254.267 185.257 254.248 185.257 254.229C185.257 254.21 185.261 254.191 185.268 254.173C185.275 254.155 185.286 254.139 185.3 254.125C185.313 254.112 185.33 254.101 185.348 254.094C185.365 254.087 185.384 254.083 185.404 254.083H236.487C236.525 254.083 236.562 254.099 236.589 254.126C236.616 254.154 236.632 254.19 236.632 254.229C236.632 254.268 236.616 254.305 236.589 254.332C236.562 254.359 236.525 254.375 236.487 254.375Z" fill="#CCCCCC"/>
<path d="M236.487 257.878H185.404C185.384 257.878 185.365 257.874 185.348 257.867C185.33 257.86 185.313 257.849 185.3 257.835C185.286 257.822 185.275 257.806 185.268 257.788C185.261 257.77 185.257 257.751 185.257 257.732C185.257 257.713 185.261 257.694 185.268 257.676C185.275 257.658 185.286 257.642 185.3 257.628C185.313 257.615 185.33 257.604 185.348 257.597C185.365 257.589 185.384 257.586 185.404 257.586H236.487C236.525 257.586 236.562 257.602 236.589 257.629C236.616 257.656 236.632 257.693 236.632 257.732C236.632 257.77 236.616 257.807 236.589 257.835C236.562 257.862 236.525 257.878 236.487 257.878Z" fill="#CCCCCC"/>
<path d="M236.487 261.381H185.404C185.384 261.381 185.365 261.377 185.348 261.37C185.33 261.363 185.313 261.352 185.3 261.338C185.286 261.325 185.275 261.309 185.268 261.291C185.261 261.273 185.257 261.254 185.257 261.235C185.257 261.215 185.261 261.196 185.268 261.179C185.275 261.161 185.286 261.145 185.3 261.131C185.313 261.118 185.33 261.107 185.348 261.1C185.365 261.092 185.384 261.089 185.404 261.089H236.487C236.525 261.089 236.562 261.104 236.589 261.132C236.616 261.159 236.632 261.196 236.632 261.235C236.632 261.273 236.616 261.31 236.589 261.338C236.562 261.365 236.525 261.38 236.487 261.381Z" fill="#CCCCCC"/>
<path d="M236.487 264.883H185.404C185.384 264.884 185.365 264.88 185.348 264.873C185.33 264.865 185.313 264.855 185.3 264.841C185.286 264.828 185.275 264.811 185.268 264.794C185.261 264.776 185.257 264.757 185.257 264.737C185.257 264.718 185.261 264.699 185.268 264.681C185.275 264.664 185.286 264.648 185.3 264.634C185.313 264.62 185.33 264.61 185.348 264.602C185.365 264.595 185.384 264.591 185.404 264.592H236.487C236.525 264.592 236.562 264.607 236.589 264.635C236.616 264.662 236.632 264.699 236.632 264.737C236.632 264.776 236.616 264.813 236.589 264.84C236.562 264.868 236.525 264.883 236.487 264.883Z" fill="#CCCCCC"/>
<path d="M172.403 126.158V5.18458C172.404 3.81002 172.951 2.49222 173.923 1.52026C174.895 0.548302 176.213 0.00156351 177.587 0H273.214C274.588 0.00157261 275.906 0.548314 276.878 1.52027C277.85 2.49222 278.397 3.81002 278.398 5.18458V126.158C278.397 127.532 277.85 128.85 276.878 129.822C275.906 130.794 274.588 131.341 273.214 131.342H177.587C176.213 131.341 174.895 130.794 173.923 129.822C172.951 128.85 172.404 127.532 172.403 126.158ZM177.587 1.15213C176.518 1.15333 175.493 1.57856 174.737 2.33453C173.981 3.0905 173.556 4.11547 173.555 5.18458V126.158C173.556 127.227 173.981 128.252 174.737 129.008C175.493 129.764 176.518 130.189 177.587 130.19H273.214C274.283 130.189 275.308 129.764 276.064 129.008C276.82 128.252 277.245 127.227 277.246 126.158V5.18458C277.245 4.11547 276.82 3.0905 276.064 2.33453C275.308 1.57856 274.283 1.15333 273.214 1.15213H177.587Z" fill="#E6E6E6"/>
<path d="M230.763 55.5565V30.7169C230.764 30.0296 231.037 29.3707 231.523 28.8847C232.009 28.3987 232.668 28.1254 233.355 28.1246H254.404C255.092 28.1254 255.751 28.3987 256.237 28.8847C256.723 29.3707 256.996 30.0296 256.997 30.7169V55.5565C256.996 56.2438 256.723 56.9027 256.237 57.3887C255.751 57.8747 255.092 58.148 254.404 58.1488H233.355C232.668 58.148 232.009 57.8747 231.523 57.3887C231.037 56.9027 230.764 56.2438 230.763 55.5565Z" fill="#2596BE"/>
<path d="M189.862 67.0778V42.2382C189.863 41.5509 190.137 40.892 190.622 40.406C191.108 39.92 191.767 39.6467 192.455 39.6459H213.504C214.191 39.6467 214.85 39.92 215.336 40.406C215.822 40.892 216.096 41.5509 216.096 42.2382V67.0778C216.096 67.7651 215.822 68.424 215.336 68.91C214.85 69.396 214.191 69.6693 213.504 69.6701H192.455C191.767 69.6693 191.108 69.396 190.622 68.91C190.137 68.424 189.863 67.7651 189.862 67.0778Z" fill="#CCCCCC"/>
<path d="M222.698 102.218V77.378C222.699 76.6907 222.972 76.0318 223.458 75.5458C223.944 75.0598 224.603 74.7865 225.29 74.7857H246.34C247.027 74.7865 247.686 75.0598 248.172 75.5458C248.658 76.0318 248.931 76.6907 248.932 77.378V102.218C248.931 102.905 248.658 103.564 248.172 104.05C247.686 104.536 247.027 104.809 246.34 104.81H225.29C224.603 104.809 223.944 104.536 223.458 104.05C222.972 103.564 222.699 102.905 222.698 102.218Z" fill="#FF6584"/>
<path d="M348.488 215.783H326.83C326.624 215.782 326.421 215.83 326.237 215.92L320.771 218.657C320.591 218.733 320.437 218.861 320.33 219.024C320.222 219.187 320.164 219.378 320.164 219.574C320.164 219.769 320.222 219.96 320.33 220.123C320.437 220.286 320.591 220.414 320.771 220.491L326.237 223.227C326.421 223.318 326.624 223.365 326.83 223.365H348.488C348.786 223.382 349.079 223.281 349.304 223.084C349.529 222.886 349.666 222.609 349.687 222.31V216.837C349.666 216.539 349.529 216.261 349.304 216.064C349.079 215.866 348.786 215.765 348.488 215.783Z" fill="#3F3D56"/>
<path d="M349.687 216.837V222.31C349.666 222.609 349.529 222.886 349.304 223.084C349.079 223.281 348.786 223.382 348.488 223.365L344.173 223.365V215.783L348.488 215.783C348.786 215.765 349.079 215.866 349.304 216.064C349.529 216.261 349.666 216.539 349.687 216.837Z" fill="#2596BE"/>
<path d="M348.325 174.838C349.306 174.414 350.365 174.203 351.434 174.218C352.502 174.232 353.555 174.472 354.524 174.922C355.493 175.372 356.356 176.022 357.057 176.829C357.757 177.636 358.279 178.581 358.589 179.604C358.685 179.928 358.759 180.259 358.81 180.593L389.096 195.612L396.105 190.967L404.826 201.007L394.124 209.699C392.837 210.736 391.25 211.331 389.599 211.394C387.947 211.458 386.319 210.987 384.956 210.053L354.227 188.802C353.998 188.899 353.765 188.985 353.527 189.058C352.505 189.367 351.428 189.457 350.368 189.321C349.308 189.185 348.289 188.827 347.377 188.27C346.465 187.713 345.682 186.969 345.077 186.088C344.473 185.207 344.061 184.208 343.87 183.157C343.813 182.851 343.776 182.543 343.758 182.233C343.673 180.682 344.065 179.141 344.881 177.819C345.698 176.497 346.899 175.456 348.325 174.838Z" fill="#FFB8B8"/>
<path d="M411.406 267.307H378.313C378.313 268.258 344.206 269.031 344.206 269.031C343.671 269.434 343.183 269.896 342.752 270.409C341.456 271.954 340.748 273.907 340.752 275.924V277.302C340.753 279.587 341.661 281.778 343.277 283.394C344.893 285.01 347.084 285.918 349.369 285.919H411.406C413.691 285.917 415.881 285.008 417.497 283.393C419.112 281.777 420.021 279.587 420.023 277.302V275.924C420.02 273.639 419.111 271.45 417.496 269.834C415.88 268.219 413.691 267.31 411.406 267.307Z" fill="#3F3D56"/>
<path d="M375.408 343.478H384.369V285.576H375.408V343.478Z" fill="#3F3D56"/>
<path d="M349.904 343.163C349.904 344.131 363.483 343.538 380.233 343.538C396.984 343.538 410.563 344.131 410.563 343.163C410.563 342.195 396.984 334.517 380.233 334.517C363.483 334.517 349.904 342.195 349.904 343.163Z" fill="#3F3D56"/>
<path d="M357.993 336.377L349.543 336.376L345.522 314.458L357.995 314.459L357.993 336.377Z" fill="#FFB8B8"/>
<path d="M360.149 344.568L332.9 344.567V344.223C332.9 342.83 333.174 341.451 333.707 340.164C334.24 338.877 335.022 337.708 336.006 336.723C336.991 335.738 338.161 334.957 339.447 334.424C340.734 333.891 342.113 333.617 343.506 333.617L360.149 333.617L360.149 344.568Z" fill="#2F2E41"/>
<path d="M345.354 322.785L328.507 285.006C327.1 281.822 326.945 278.224 328.071 274.931C329.198 271.637 331.523 268.888 334.585 267.232L371.128 247.637L387.803 246.219L403.185 244.821L403.296 245.008C403.437 245.248 406.745 250.96 404.509 257.224C402.813 261.975 398.403 265.686 391.399 268.254C375.053 274.248 356.169 279.371 348.81 281.295C348.484 281.378 348.18 281.529 347.918 281.738C347.655 281.947 347.439 282.209 347.285 282.508C347.131 282.802 347.039 283.126 347.016 283.458C346.993 283.79 347.038 284.123 347.15 284.437L362.802 319.602C362.965 320.048 363.024 320.525 362.974 320.997C362.924 321.47 362.766 321.924 362.512 322.326C362.258 322.727 361.916 323.065 361.511 323.314C361.106 323.562 360.649 323.714 360.176 323.758L348.481 324.609C348.382 324.619 348.283 324.623 348.184 324.623C347.585 324.623 346.999 324.449 346.497 324.123C345.995 323.797 345.598 323.332 345.354 322.785Z" fill="#2F2E41"/>
<path d="M362.129 336.377L353.679 336.376L349.658 314.458L362.131 314.459L362.129 336.377Z" fill="#FFB8B8"/>
<path d="M364.285 344.568L337.036 344.567V344.223C337.036 342.83 337.31 341.451 337.843 340.164C338.376 338.877 339.157 337.708 340.142 336.723C341.127 335.738 342.296 334.957 343.583 334.424C344.87 333.891 346.249 333.617 347.642 333.617L364.285 333.617L364.285 344.568Z" fill="#2F2E41"/>
<path d="M350.179 324.853L333.332 287.074C331.925 283.889 331.77 280.292 332.896 276.999C334.023 273.705 336.349 270.956 339.411 269.3L375.953 249.705L392.628 248.287L408.01 246.889L408.121 247.076C408.263 247.316 411.57 253.028 409.334 259.292C407.639 264.043 403.228 267.754 396.224 270.322C379.878 276.316 360.995 281.439 353.635 283.363C353.309 283.446 353.005 283.597 352.743 283.806C352.48 284.015 352.265 284.277 352.111 284.576C351.956 284.87 351.864 285.194 351.841 285.526C351.818 285.858 351.863 286.191 351.975 286.505L367.627 321.67C367.79 322.116 367.849 322.593 367.799 323.065C367.749 323.538 367.591 323.992 367.337 324.394C367.083 324.795 366.741 325.133 366.336 325.382C365.931 325.63 365.474 325.782 365.001 325.826L353.306 326.677C353.207 326.687 353.108 326.691 353.01 326.691C352.411 326.691 351.825 326.517 351.322 326.191C350.82 325.865 350.423 325.4 350.179 324.853Z" fill="#2F2E41"/>
<path d="M341.782 209.442C334.702 200.025 329.106 189.58 325.187 178.47C324.96 177.805 324.976 177.082 325.232 176.428C325.489 175.774 325.969 175.233 326.587 174.9L350.813 161.919C351.205 161.708 351.64 161.588 352.085 161.57C352.53 161.552 352.973 161.636 353.381 161.815C353.796 161.995 354.165 162.268 354.459 162.613C354.753 162.957 354.965 163.364 355.078 163.803C357.897 174.509 363.198 184.401 370.549 192.678C370.852 193.015 371.074 193.417 371.198 193.852C371.322 194.288 371.345 194.746 371.265 195.192C371.188 195.631 371.013 196.046 370.751 196.407C370.49 196.767 370.149 197.063 369.756 197.272L345.53 210.253C344.91 210.584 344.194 210.683 343.507 210.535C342.821 210.386 342.209 209.999 341.782 209.442Z" fill="#CCCCCC"/>
<path d="M343.435 208.2C343.565 208.362 343.748 208.474 343.953 208.516C344.157 208.559 344.369 208.528 344.553 208.43L368.779 195.449C368.897 195.388 368.999 195.3 369.077 195.193C369.155 195.086 369.207 194.962 369.229 194.831C369.254 194.693 369.247 194.551 369.208 194.416C369.169 194.281 369.1 194.157 369.005 194.054C361.436 185.532 355.98 175.349 353.077 164.327C353.044 164.191 352.979 164.065 352.888 163.958C352.798 163.851 352.684 163.766 352.555 163.71C352.433 163.656 352.301 163.631 352.168 163.636C352.035 163.642 351.906 163.678 351.789 163.742L327.564 176.723C327.38 176.822 327.237 176.982 327.159 177.175C327.081 177.369 327.073 177.584 327.137 177.782C330.986 188.693 336.482 198.951 343.435 208.2Z" fill="white"/>
<path d="M422.264 205.979L403.291 213.189L398.659 200.322C398.044 198.613 398.052 196.742 398.683 195.04C399.314 193.337 400.527 191.912 402.107 191.017C403.705 190.111 405.574 189.807 407.377 190.159C409.18 190.511 410.798 191.496 411.938 192.936L422.264 205.979Z" fill="#2596BE"/>
<path d="M374.006 256.96C373.606 256.678 373.272 256.314 373.024 255.892C372.777 255.47 372.622 255 372.57 254.514C370.139 231.829 371.832 214.077 377.743 200.242C378.785 197.855 380.353 195.736 382.331 194.043C384.309 192.35 386.645 191.128 389.163 190.467L404.5 189.693L404.579 189.732C408.04 191.427 410.862 194.192 412.628 197.618C414.393 201.043 415.008 204.946 414.381 208.749C409.448 221.751 405.317 235.289 408.467 246.21C408.599 246.666 408.638 247.145 408.581 247.617C408.523 248.088 408.371 248.544 408.134 248.956C407.904 249.353 407.594 249.7 407.225 249.974C406.855 250.247 406.434 250.443 405.986 250.547L376.774 257.496C376.301 257.609 375.81 257.619 375.332 257.527C374.855 257.434 374.403 257.241 374.006 256.96Z" fill="#2596BE"/>
<path d="M399.381 183.965C408.732 183.965 416.312 176.385 416.312 167.035C416.312 157.685 408.732 150.105 399.381 150.105C390.031 150.105 382.451 157.685 382.451 167.035C382.451 176.385 390.031 183.965 399.381 183.965Z" fill="#FFB8B8"/>
<path d="M352.403 180.444L339.209 186.268C338.707 186.489 338.138 186.502 337.627 186.304C337.116 186.106 336.704 185.713 336.482 185.212L336.156 184.472C335.935 183.971 335.922 183.402 336.12 182.89C336.318 182.379 336.711 181.967 337.212 181.745L350.407 175.921C350.909 175.7 351.478 175.688 351.989 175.886C352.5 176.084 352.912 176.477 353.134 176.978L353.46 177.717C353.681 178.219 353.694 178.788 353.496 179.299C353.297 179.81 352.905 180.222 352.403 180.444Z" fill="#CCCCCC"/>
<path d="M357.228 189.405L344.034 195.229C343.532 195.45 342.963 195.463 342.452 195.265C341.941 195.067 341.529 194.674 341.307 194.173L340.981 193.433C340.76 192.932 340.747 192.363 340.945 191.851C341.143 191.34 341.536 190.928 342.038 190.706L355.232 184.882C355.734 184.661 356.303 184.648 356.814 184.847C357.325 185.045 357.737 185.437 357.959 185.939L358.285 186.678C358.506 187.18 358.519 187.749 358.321 188.26C358.123 188.771 357.73 189.183 357.228 189.405Z" fill="#CCCCCC"/>
<path d="M367.404 224.406L337.988 201.2C337.754 201.282 337.515 201.353 337.274 201.411C336.236 201.653 335.158 201.675 334.111 201.474C333.064 201.273 332.07 200.854 331.196 200.245C330.315 199.634 329.575 198.843 329.025 197.924C328.475 197.005 328.128 195.978 328.007 194.914C327.809 193.212 328.193 191.494 329.095 190.038C329.997 188.582 331.365 187.473 332.976 186.892C333.982 186.531 335.052 186.387 336.117 186.469C337.183 186.55 338.219 186.856 339.158 187.366C340.096 187.876 340.917 188.579 341.565 189.428C342.214 190.277 342.675 191.254 342.92 192.294C342.996 192.624 343.048 192.958 343.078 193.295L372.361 210.188L379.648 205.993L387.72 216.561L376.406 224.625C375.081 225.562 373.49 226.046 371.868 226.007C370.247 225.967 368.681 225.406 367.404 224.406Z" fill="#FFB8B8"/>
<path d="M391.31 219.852L374.526 208.439L382.414 197.268C383.461 195.784 384.999 194.719 386.756 194.26C388.513 193.801 390.375 193.977 392.015 194.759C393.673 195.549 394.994 196.906 395.739 198.585C396.484 200.264 396.604 202.155 396.078 203.914L391.31 219.852Z" fill="#2596BE"/>
<path d="M393.174 164.513C388.823 167.491 383.109 170.553 378.665 167.381C375.747 165.299 374.828 161.443 376.011 158.059C378.139 151.973 383.986 149.294 389.577 147.24C396.845 144.57 404.759 142.447 412.263 144.359C419.766 146.27 426.397 153.535 425.043 161.159C423.954 167.29 418.17 172.391 418.991 178.564C419.818 184.776 426.804 188.046 432.972 189.156C439.139 190.266 446.041 190.623 450.474 195.053C456.128 200.705 454.716 210.806 449.395 216.773C444.075 222.74 436.046 225.444 428.266 227.283C417.957 229.719 406.808 231 397.018 226.956C387.228 222.913 379.609 212.03 382.445 201.825C383.643 197.514 386.465 193.871 389.192 190.324C391.92 186.777 394.681 183.068 395.722 178.717C396.589 175.09 395.947 170.88 393.542 168.16C393.105 167.684 392.83 167.081 392.756 166.439C392.682 165.797 392.814 165.148 393.133 164.585L393.174 164.513Z" fill="#2F2E41"/>
<path d="M75.1842 246.771C70.8216 248.304 66.1377 248.688 61.5836 247.886C57.0295 247.084 52.7587 245.122 49.1828 242.19C40.0756 234.547 37.2203 221.953 34.897 210.293C32.6064 198.796 30.3157 187.299 28.0251 175.803L42.4121 185.709C52.7583 192.833 63.3376 200.185 70.5014 210.504C77.6651 220.823 80.792 234.909 75.0362 246.075" fill="#E6E6E6"/>
<path d="M73.9544 288.528C75.4105 277.921 76.9078 267.178 75.8864 256.458C74.9793 246.937 72.0746 237.638 66.1611 230.013C63.0222 225.974 59.2028 222.513 54.8745 219.786C53.7458 219.073 52.707 220.862 53.8308 221.571C61.3199 226.304 67.1125 233.293 70.3733 241.531C73.9749 250.692 74.5533 260.677 73.9326 270.408C73.5573 276.293 72.7618 282.139 71.9603 287.978C71.8971 288.242 71.9365 288.52 72.0706 288.756C72.2046 288.992 72.4233 289.169 72.6824 289.25C72.9468 289.321 73.2286 289.285 73.4667 289.15C73.7048 289.015 73.8801 288.791 73.9544 288.528Z" fill="#F2F2F2"/>
<path d="M59.929 269.759C58.058 272.603 55.4861 274.917 52.4612 276.478C49.4364 278.039 46.0604 278.795 42.6586 278.673C33.916 278.258 26.6275 272.156 20.0665 266.363L0.660235 249.229L13.504 248.614C22.7404 248.172 32.2151 247.76 41.0125 250.608C49.8099 253.456 57.9233 260.311 59.532 269.417" fill="#E6E6E6"/>
<path d="M78.0695 294.625C71.0609 282.224 62.9314 268.441 48.4054 264.036C44.3665 262.815 40.1314 262.378 35.9282 262.747C34.6035 262.862 34.9343 264.904 36.2566 264.79C43.3021 264.205 50.3339 266.065 56.1683 270.057C61.7826 273.879 66.154 279.192 69.8538 284.826C72.1201 288.277 74.1501 291.875 76.1805 295.467C76.8294 296.615 78.726 295.787 78.0695 294.625Z" fill="#F2F2F2"/>
<path d="M89.2995 307.678C89.0633 304.942 88.0809 302.323 86.4592 300.107C84.8375 297.89 82.6387 296.161 80.1022 295.108V287.938H68.0774V295.334C65.6657 296.439 63.5903 298.163 62.0626 300.332C60.5349 302.501 59.6096 305.036 59.3809 307.678L56.5534 340.547H92.1271L89.2995 307.678Z" fill="#F2F2F2"/>
</svg>
