<svg width="477" height="416" viewBox="0 0 477 416" fill="none" xmlns="http://www.w3.org/2000/svg">
<path d="M430.082 216.219C430.144 267.629 410.272 317.062 374.644 354.125C372.497 356.374 370.291 358.568 368.027 360.709C364.578 363.99 361.013 367.143 357.332 370.17C322.899 398.539 279.913 414.48 235.308 415.423C233.822 415.456 232.33 415.473 230.833 415.473C195.26 415.473 150.518 396.473 109.914 370.17C106.555 367.994 103.226 365.768 99.9261 363.491C98.3838 362.436 96.849 361.367 95.3217 360.283C79.6615 349.225 64.7968 337.081 50.8373 323.941C41.6976 315.364 33.1269 306.199 25.1798 296.506C-6.01873 258.022 -12.9 223.347 31.5787 216.219C36.8449 215.378 41.9558 214.478 46.9116 213.521C54.0901 212.142 60.9602 210.652 67.5218 209.052C76.3603 206.904 84.6642 204.574 92.4335 202.064C95.0469 201.223 97.6005 200.364 100.094 199.49C136.963 186.54 161.639 169.654 178.435 151.332C181.284 148.23 183.911 145.092 186.315 141.916C189.993 137.081 193.334 131.999 196.314 126.706C200.428 119.352 203.883 111.648 206.639 103.684L206.791 103.247C220.155 64.6961 216.089 28.9381 230.833 16.9702C293.858 -34.1935 372.323 38.6684 409.152 124.592C411.008 128.921 412.754 133.277 414.39 137.659C415.125 139.616 415.833 141.577 416.515 143.542C418.31 148.662 419.938 153.796 421.4 158.942C421.961 160.905 422.496 162.866 423.004 164.825C423.548 166.939 424.07 169.048 424.552 171.157C428.136 186.596 430.082 201.823 430.082 216.219Z" fill="#F2F2F2"/>
<path d="M235.308 415.423C233.822 415.456 232.33 415.473 230.833 415.473C195.26 415.473 150.518 396.473 109.914 370.17C106.555 367.994 103.226 365.768 99.9261 363.491L102.82 345.881L190.426 334.249L234.394 367.871L235.308 415.423Z" fill="#2F2E41"/>
<path d="M239.526 100.976H227.042C226.655 100.976 226.284 101.13 226.011 101.403C225.738 101.676 225.584 102.047 225.584 102.434V114.923C225.584 115.114 225.622 115.304 225.695 115.48C225.769 115.657 225.876 115.817 226.012 115.952C226.147 116.087 226.308 116.194 226.484 116.266C226.661 116.339 226.851 116.376 227.042 116.376H239.526C239.911 116.376 240.282 116.223 240.555 115.951C240.828 115.679 240.983 115.309 240.984 114.923V102.434C240.983 102.047 240.829 101.677 240.556 101.404C240.282 101.131 239.912 100.977 239.526 100.976Z" fill="white"/>
<path d="M239.526 122.259H227.042C226.655 122.259 226.284 122.413 226.011 122.686C225.738 122.96 225.584 123.33 225.584 123.717V136.206C225.584 136.398 225.622 136.587 225.695 136.763C225.769 136.94 225.876 137.1 226.012 137.235C226.147 137.37 226.308 137.477 226.484 137.55C226.661 137.622 226.851 137.66 227.042 137.659H239.526C239.911 137.659 240.282 137.506 240.555 137.234C240.828 136.962 240.983 136.592 240.984 136.206V123.717C240.983 123.331 240.829 122.96 240.556 122.687C240.282 122.414 239.912 122.26 239.526 122.259Z" fill="#E6E6E6"/>
<path d="M239.526 143.542H227.042C226.655 143.542 226.284 143.696 226.011 143.969C225.738 144.243 225.584 144.614 225.584 145V157.484C225.583 157.676 225.621 157.865 225.694 158.043C225.767 158.22 225.875 158.38 226.01 158.516C226.145 158.651 226.306 158.759 226.483 158.832C226.66 158.905 226.85 158.943 227.042 158.942H239.526C239.912 158.942 240.283 158.788 240.557 158.515C240.83 158.242 240.984 157.871 240.984 157.484V145C240.983 144.614 240.829 144.244 240.556 143.97C240.282 143.697 239.912 143.543 239.526 143.542Z" fill="#E6E6E6"/>
<path d="M240.961 166.025C240.899 165.69 240.722 165.386 240.46 165.167C240.198 164.948 239.867 164.827 239.526 164.825H227.042C226.655 164.825 226.284 164.979 226.011 165.252C225.738 165.526 225.584 165.897 225.584 166.283V178.767C225.583 178.959 225.621 179.149 225.694 179.326C225.767 179.503 225.874 179.664 226.01 179.799C226.145 179.935 226.306 180.042 226.483 180.115C226.66 180.188 226.85 180.226 227.042 180.225H239.526C239.912 180.225 240.283 180.072 240.557 179.798C240.83 179.525 240.984 179.154 240.984 178.767V166.283C240.985 166.197 240.977 166.11 240.961 166.025Z" fill="#E6E6E6"/>
<path d="M240.092 186.221C239.913 186.146 239.72 186.108 239.526 186.108H227.042C226.85 186.108 226.661 186.145 226.483 186.219C226.306 186.292 226.145 186.399 226.01 186.535C225.875 186.67 225.767 186.831 225.694 187.008C225.621 187.185 225.583 187.375 225.584 187.567V200.05C225.583 200.242 225.62 200.432 225.693 200.609C225.766 200.787 225.873 200.948 226.009 201.083C226.145 201.219 226.306 201.326 226.483 201.399C226.66 201.472 226.85 201.509 227.042 201.509H239.526C239.912 201.508 240.283 201.355 240.557 201.081C240.83 200.808 240.984 200.437 240.984 200.05V187.567C240.983 187.28 240.898 186.999 240.74 186.76C240.581 186.521 240.356 186.333 240.092 186.221Z" fill="#E6E6E6"/>
<path d="M265.75 100.976H253.266C252.879 100.976 252.508 101.13 252.235 101.403C251.962 101.676 251.808 102.047 251.808 102.434V114.923C251.808 115.114 251.846 115.304 251.919 115.48C251.993 115.657 252.1 115.817 252.236 115.952C252.371 116.087 252.532 116.194 252.709 116.266C252.885 116.339 253.075 116.376 253.266 116.376H265.75C266.136 116.376 266.506 116.223 266.779 115.951C267.052 115.679 267.207 115.309 267.208 114.923V102.434C267.207 102.047 267.053 101.677 266.78 101.404C266.506 101.131 266.136 100.977 265.75 100.976Z" fill="#E6E6E6"/>
<path d="M265.75 122.259H253.266C252.879 122.259 252.508 122.413 252.235 122.686C251.962 122.96 251.808 123.33 251.808 123.717V136.206C251.808 136.398 251.846 136.587 251.919 136.763C251.993 136.94 252.1 137.1 252.236 137.235C252.371 137.37 252.532 137.477 252.709 137.55C252.885 137.622 253.075 137.66 253.266 137.659H265.75C266.136 137.659 266.506 137.506 266.779 137.234C267.052 136.962 267.207 136.592 267.208 136.206V123.717C267.207 123.331 267.053 122.96 266.78 122.687C266.506 122.414 266.136 122.26 265.75 122.259Z" fill="#2596BE"/>
<path d="M265.75 143.542H253.266C252.879 143.542 252.508 143.696 252.235 143.969C251.962 144.243 251.808 144.614 251.808 145V157.484C251.807 157.676 251.845 157.865 251.918 158.043C251.991 158.22 252.099 158.38 252.234 158.516C252.369 158.651 252.53 158.759 252.707 158.832C252.885 158.905 253.074 158.943 253.266 158.942H265.75C266.136 158.942 266.507 158.788 266.781 158.515C267.054 158.242 267.208 157.871 267.208 157.484V145C267.207 144.614 267.053 144.244 266.78 143.97C266.506 143.697 266.136 143.543 265.75 143.542Z" fill="#2596BE"/>
<path d="M265.75 164.825H253.266C252.96 164.825 252.662 164.922 252.415 165.101C252.167 165.28 251.982 165.533 251.886 165.823C251.834 165.971 251.808 166.127 251.808 166.283V178.767C251.807 178.959 251.845 179.149 251.918 179.326C251.991 179.503 252.098 179.664 252.234 179.799C252.369 179.935 252.53 180.042 252.707 180.115C252.884 180.188 253.074 180.226 253.266 180.225H265.75C266.136 180.225 266.507 180.072 266.781 179.798C267.054 179.525 267.208 179.154 267.208 178.767V166.283C267.207 165.897 267.053 165.527 266.78 165.254C266.506 164.98 266.136 164.826 265.75 164.825Z" fill="#2596BE"/>
<path d="M265.75 186.108H253.266C253.074 186.108 252.885 186.145 252.707 186.219C252.53 186.292 252.369 186.399 252.234 186.535C252.099 186.67 251.991 186.831 251.918 187.008C251.845 187.185 251.807 187.375 251.808 187.567V200.05C251.807 200.242 251.845 200.432 251.918 200.609C251.991 200.786 252.099 200.947 252.234 201.082C252.369 201.218 252.53 201.325 252.707 201.398C252.885 201.471 253.074 201.509 253.266 201.509H265.75C266.136 201.508 266.507 201.355 266.781 201.081C267.054 200.808 267.208 200.437 267.208 200.05V187.567C267.208 187.18 267.054 186.809 266.781 186.536C266.507 186.262 266.136 186.109 265.75 186.108Z" fill="#E6E6E6"/>
<path d="M291.974 100.976H279.49C279.103 100.976 278.732 101.13 278.459 101.403C278.186 101.676 278.032 102.047 278.032 102.434V114.923C278.032 115.114 278.07 115.304 278.143 115.48C278.217 115.657 278.324 115.817 278.46 115.952C278.595 116.087 278.756 116.194 278.933 116.266C279.109 116.339 279.299 116.376 279.49 116.376H291.974C292.36 116.376 292.73 116.223 293.003 115.951C293.276 115.679 293.431 115.309 293.432 114.923V102.434C293.431 102.047 293.277 101.677 293.004 101.404C292.73 101.131 292.36 100.977 291.974 100.976Z" fill="#2596BE"/>
<path d="M291.974 122.259H279.49C279.103 122.259 278.732 122.413 278.459 122.686C278.186 122.96 278.032 123.33 278.032 123.717V136.206C278.032 136.398 278.07 136.587 278.143 136.763C278.217 136.94 278.324 137.1 278.46 137.235C278.595 137.37 278.756 137.477 278.933 137.55C279.109 137.622 279.299 137.66 279.49 137.659H291.974C292.36 137.659 292.73 137.506 293.003 137.234C293.276 136.962 293.431 136.592 293.432 136.206V123.717C293.431 123.331 293.277 122.96 293.004 122.687C292.73 122.414 292.36 122.26 291.974 122.259Z" fill="#2596BE"/>
<path d="M291.974 143.542H279.49C279.103 143.542 278.732 143.696 278.459 143.969C278.186 144.243 278.032 144.614 278.032 145V157.484C278.031 157.676 278.069 157.865 278.142 158.043C278.215 158.22 278.323 158.38 278.458 158.516C278.593 158.651 278.754 158.759 278.931 158.832C279.109 158.905 279.298 158.943 279.49 158.942H291.974C292.36 158.942 292.731 158.788 293.005 158.515C293.278 158.242 293.432 157.871 293.432 157.484V145C293.431 144.614 293.277 144.244 293.004 143.97C292.73 143.697 292.36 143.543 291.974 143.542Z" fill="#E6E6E6"/>
<path d="M291.974 164.825H279.49C279.103 164.825 278.732 164.979 278.459 165.252C278.186 165.526 278.032 165.897 278.032 166.283V178.767C278.031 178.959 278.069 179.149 278.142 179.326C278.215 179.503 278.323 179.664 278.458 179.799C278.593 179.935 278.754 180.042 278.931 180.115C279.109 180.188 279.298 180.226 279.49 180.225H291.974C292.36 180.225 292.731 180.072 293.005 179.798C293.278 179.525 293.432 179.154 293.432 178.767V166.283C293.431 165.897 293.277 165.527 293.004 165.254C292.73 164.98 292.36 164.826 291.974 164.825Z" fill="#2596BE"/>
<path d="M291.974 186.108H279.49C279.298 186.108 279.109 186.145 278.931 186.219C278.754 186.292 278.593 186.399 278.458 186.535C278.323 186.67 278.215 186.831 278.142 187.008C278.069 187.185 278.031 187.375 278.032 187.567V200.05C278.031 200.242 278.069 200.432 278.142 200.609C278.215 200.786 278.323 200.947 278.458 201.082C278.593 201.218 278.754 201.325 278.931 201.398C279.109 201.471 279.298 201.509 279.49 201.509H291.974C292.36 201.508 292.731 201.355 293.005 201.081C293.278 200.808 293.432 200.437 293.432 200.05V187.567C293.432 187.18 293.278 186.809 293.005 186.536C292.731 186.262 292.36 186.109 291.974 186.108Z" fill="#2596BE"/>
<path d="M318.198 100.976H305.714C305.327 100.976 304.956 101.13 304.683 101.403C304.41 101.676 304.256 102.047 304.256 102.434V114.923C304.256 115.114 304.294 115.304 304.367 115.48C304.441 115.657 304.548 115.817 304.684 115.952C304.819 116.087 304.98 116.194 305.156 116.266C305.333 116.339 305.523 116.376 305.714 116.376H318.198C318.584 116.376 318.954 116.223 319.227 115.951C319.5 115.679 319.655 115.309 319.656 114.923V102.434C319.655 102.047 319.501 101.677 319.228 101.404C318.954 101.131 318.584 100.977 318.198 100.976Z" fill="#2596BE"/>
<path d="M318.198 122.259H305.714C305.327 122.259 304.956 122.413 304.683 122.686C304.41 122.96 304.256 123.33 304.256 123.717V136.206C304.256 136.398 304.294 136.587 304.367 136.763C304.441 136.94 304.548 137.1 304.684 137.235C304.819 137.37 304.98 137.477 305.156 137.55C305.333 137.622 305.523 137.66 305.714 137.659H318.198C318.584 137.659 318.954 137.506 319.227 137.234C319.5 136.962 319.655 136.592 319.656 136.206V123.717C319.655 123.331 319.501 122.96 319.228 122.687C318.954 122.414 318.584 122.26 318.198 122.259Z" fill="white"/>
<path d="M318.198 143.542H305.714C305.327 143.542 304.956 143.696 304.683 143.969C304.41 144.243 304.256 144.614 304.256 145V157.484C304.255 157.676 304.293 157.865 304.366 158.043C304.439 158.22 304.547 158.38 304.682 158.516C304.817 158.651 304.978 158.759 305.155 158.832C305.332 158.905 305.522 158.943 305.714 158.942H318.198C318.584 158.942 318.955 158.788 319.229 158.515C319.502 158.242 319.656 157.871 319.656 157.484V145C319.655 144.614 319.501 144.244 319.228 143.97C318.954 143.697 318.584 143.543 318.198 143.542Z" fill="white"/>
<path d="M318.198 164.825H305.714C305.327 164.825 304.956 164.979 304.683 165.252C304.41 165.526 304.256 165.897 304.256 166.283V178.767C304.255 178.959 304.293 179.149 304.366 179.326C304.439 179.503 304.547 179.664 304.682 179.799C304.817 179.935 304.978 180.042 305.155 180.115C305.332 180.188 305.522 180.226 305.714 180.225H318.198C318.584 180.225 318.955 180.072 319.229 179.798C319.502 179.525 319.656 179.154 319.656 178.767V166.283C319.655 165.897 319.501 165.527 319.228 165.254C318.954 164.98 318.584 164.826 318.198 164.825Z" fill="#E6E6E6"/>
<path d="M318.198 186.108H305.714C305.522 186.108 305.332 186.145 305.155 186.219C304.978 186.292 304.817 186.399 304.682 186.535C304.547 186.67 304.439 186.831 304.366 187.008C304.293 187.185 304.255 187.375 304.256 187.567V200.05C304.255 200.242 304.293 200.432 304.366 200.609C304.439 200.786 304.547 200.947 304.682 201.082C304.817 201.218 304.978 201.325 305.155 201.398C305.332 201.471 305.522 201.509 305.714 201.509H318.198C318.584 201.508 318.955 201.355 319.229 201.081C319.502 200.808 319.656 200.437 319.656 200.05V187.567C319.656 187.18 319.502 186.809 319.229 186.536C318.955 186.262 318.584 186.109 318.198 186.108Z" fill="#2596BE"/>
<path d="M344.422 100.976H331.932C331.546 100.977 331.177 101.131 330.905 101.405C330.632 101.678 330.48 102.048 330.48 102.434V114.923C330.48 115.308 330.633 115.678 330.905 115.95C331.178 116.223 331.547 116.376 331.932 116.376H344.422C344.808 116.376 345.178 116.223 345.451 115.951C345.724 115.679 345.879 115.309 345.88 114.923V102.434C345.879 102.047 345.725 101.677 345.452 101.404C345.178 101.131 344.808 100.977 344.422 100.976Z" fill="white"/>
<path d="M344.422 122.259H331.932C331.546 122.26 331.177 122.414 330.905 122.688C330.632 122.961 330.48 123.331 330.48 123.717V136.206C330.48 136.592 330.633 136.961 330.905 137.234C331.178 137.506 331.547 137.659 331.932 137.659H344.422C344.808 137.659 345.178 137.506 345.451 137.234C345.724 136.962 345.879 136.592 345.88 136.206V123.717C345.879 123.331 345.725 122.96 345.452 122.687C345.178 122.414 344.808 122.26 344.422 122.259Z" fill="white"/>
<path d="M344.422 143.542H331.932C331.546 143.543 331.177 143.698 330.905 143.971C330.632 144.244 330.48 144.614 330.48 145V157.484C330.479 157.675 330.516 157.865 330.589 158.041C330.662 158.218 330.769 158.379 330.904 158.514C331.039 158.65 331.199 158.757 331.375 158.831C331.552 158.904 331.741 158.942 331.932 158.942H344.422C344.808 158.942 345.179 158.788 345.453 158.515C345.726 158.242 345.88 157.871 345.88 157.484V145C345.879 144.614 345.725 144.244 345.452 143.97C345.178 143.697 344.808 143.543 344.422 143.542Z" fill="white"/>
<path d="M344.422 164.825H331.932C331.546 164.827 331.177 164.981 330.905 165.254C330.632 165.527 330.48 165.898 330.48 166.283V178.767C330.479 178.958 330.516 179.148 330.589 179.325C330.662 179.501 330.769 179.662 330.904 179.798C331.039 179.933 331.199 180.04 331.375 180.114C331.552 180.187 331.741 180.225 331.932 180.225H344.422C344.808 180.225 345.179 180.072 345.453 179.798C345.726 179.525 345.88 179.154 345.88 178.767V166.283C345.879 165.897 345.725 165.527 345.452 165.254C345.178 164.98 344.808 164.826 344.422 164.825Z" fill="#2596BE"/>
<path d="M344.422 186.108H331.932C331.741 186.109 331.552 186.146 331.375 186.22C331.199 186.293 331.039 186.401 330.904 186.536C330.769 186.672 330.662 186.832 330.589 187.009C330.516 187.186 330.479 187.375 330.48 187.567V200.05C330.479 200.242 330.516 200.431 330.589 200.608C330.662 200.785 330.769 200.945 330.904 201.081C331.039 201.216 331.199 201.324 331.375 201.397C331.552 201.47 331.741 201.508 331.932 201.509H344.422C344.808 201.508 345.179 201.355 345.453 201.081C345.726 200.808 345.88 200.437 345.88 200.05V187.567C345.88 187.18 345.726 186.809 345.453 186.536C345.179 186.262 344.808 186.109 344.422 186.108Z" fill="#E6E6E6"/>
<path d="M370.646 100.976H358.156C357.771 100.977 357.401 101.131 357.129 101.405C356.856 101.678 356.704 102.048 356.704 102.434V114.923C356.704 115.308 356.857 115.678 357.129 115.95C357.402 116.223 357.771 116.376 358.156 116.376H370.646C371.032 116.376 371.402 116.223 371.675 115.951C371.948 115.679 372.103 115.309 372.104 114.923V102.434C372.103 102.047 371.949 101.677 371.676 101.404C371.402 101.131 371.032 100.977 370.646 100.976Z" fill="white"/>
<path d="M370.646 122.259H358.156C357.771 122.26 357.401 122.414 357.129 122.688C356.856 122.961 356.704 123.331 356.704 123.717V136.206C356.704 136.592 356.857 136.961 357.129 137.234C357.402 137.506 357.771 137.659 358.156 137.659H370.646C371.032 137.659 371.402 137.506 371.675 137.234C371.948 136.962 372.103 136.592 372.104 136.206V123.717C372.103 123.331 371.949 122.96 371.676 122.687C371.402 122.414 371.032 122.26 370.646 122.259Z" fill="white"/>
<path d="M370.646 143.542H358.156C357.771 143.543 357.401 143.698 357.129 143.971C356.856 144.244 356.704 144.614 356.704 145V157.484C356.703 157.675 356.74 157.865 356.813 158.041C356.886 158.218 356.993 158.379 357.128 158.514C357.263 158.65 357.423 158.757 357.599 158.831C357.776 158.904 357.965 158.942 358.156 158.942H370.646C371.032 158.942 371.403 158.788 371.677 158.515C371.95 158.242 372.104 157.871 372.104 157.484V145C372.103 144.614 371.949 144.244 371.676 143.97C371.402 143.697 371.032 143.543 370.646 143.542Z" fill="#2596BE"/>
<path d="M370.646 164.825H358.156C357.771 164.827 357.401 164.981 357.129 165.254C356.856 165.527 356.704 165.898 356.704 166.283V178.767C356.703 178.958 356.74 179.148 356.813 179.325C356.886 179.501 356.993 179.662 357.128 179.798C357.263 179.933 357.423 180.04 357.599 180.114C357.776 180.187 357.965 180.225 358.156 180.225H370.646C371.032 180.225 371.403 180.072 371.677 179.798C371.95 179.525 372.104 179.154 372.104 178.767V166.283C372.103 165.897 371.949 165.527 371.676 165.254C371.402 164.98 371.032 164.826 370.646 164.825Z" fill="#E6E6E6"/>
<path d="M370.646 186.108H358.156C357.965 186.109 357.776 186.146 357.599 186.22C357.423 186.293 357.263 186.401 357.128 186.536C356.993 186.672 356.886 186.832 356.813 187.009C356.74 187.186 356.703 187.375 356.704 187.567V200.05C356.703 200.242 356.74 200.431 356.813 200.608C356.886 200.785 356.993 200.945 357.128 201.081C357.263 201.216 357.423 201.324 357.599 201.397C357.776 201.47 357.965 201.508 358.156 201.509H370.646C371.032 201.508 371.403 201.355 371.677 201.081C371.95 200.808 372.104 200.437 372.104 200.05V187.567C372.104 187.18 371.95 186.809 371.677 186.536C371.403 186.262 371.032 186.109 370.646 186.108Z" fill="white"/>
<path d="M396.87 100.976H384.38C383.995 100.977 383.625 101.131 383.353 101.405C383.08 101.678 382.928 102.048 382.928 102.434V114.923C382.928 115.308 383.081 115.678 383.353 115.95C383.626 116.223 383.995 116.376 384.38 116.376H396.87C397.256 116.376 397.626 116.223 397.899 115.951C398.172 115.679 398.327 115.309 398.328 114.923V102.434C398.327 102.047 398.173 101.677 397.9 101.404C397.626 101.131 397.256 100.977 396.87 100.976Z" fill="#2596BE"/>
<path d="M396.87 122.259H384.38C383.995 122.26 383.625 122.414 383.353 122.688C383.08 122.961 382.928 123.331 382.928 123.717V136.206C382.928 136.592 383.081 136.961 383.353 137.234C383.626 137.506 383.995 137.659 384.38 137.659H396.87C397.256 137.659 397.626 137.506 397.899 137.234C398.172 136.962 398.327 136.592 398.328 136.206V123.717C398.327 123.331 398.173 122.96 397.9 122.687C397.626 122.414 397.256 122.26 396.87 122.259Z" fill="#2596BE"/>
<path d="M396.87 143.542H384.38C383.995 143.543 383.625 143.698 383.353 143.971C383.08 144.244 382.928 144.614 382.928 145V157.484C382.927 157.675 382.964 157.865 383.037 158.041C383.11 158.218 383.217 158.379 383.352 158.514C383.487 158.65 383.647 158.757 383.823 158.831C384 158.904 384.189 158.942 384.38 158.942H396.87C397.256 158.942 397.627 158.788 397.901 158.515C398.174 158.242 398.328 157.871 398.328 157.484V145C398.327 144.614 398.173 144.244 397.9 143.97C397.626 143.697 397.256 143.543 396.87 143.542Z" fill="#E6E6E6"/>
<path d="M396.87 164.825H384.38C383.995 164.827 383.625 164.981 383.353 165.254C383.08 165.527 382.928 165.898 382.928 166.283V178.767C382.927 178.958 382.964 179.148 383.037 179.325C383.11 179.501 383.217 179.662 383.352 179.798C383.487 179.933 383.647 180.04 383.823 180.114C384 180.187 384.189 180.225 384.38 180.225H396.87C397.256 180.225 397.627 180.072 397.901 179.798C398.174 179.525 398.328 179.154 398.328 178.767V166.283C398.327 165.897 398.173 165.527 397.9 165.254C397.626 164.98 397.256 164.826 396.87 164.825Z" fill="white"/>
<path d="M396.87 186.108H384.38C384.189 186.109 384 186.146 383.823 186.22C383.647 186.293 383.487 186.401 383.352 186.536C383.217 186.672 383.11 186.832 383.037 187.009C382.964 187.186 382.927 187.375 382.928 187.567V200.05C382.927 200.242 382.964 200.431 383.037 200.608C383.11 200.785 383.217 200.945 383.352 201.081C383.487 201.216 383.647 201.324 383.823 201.397C384 201.47 384.189 201.508 384.38 201.509H396.87C397.256 201.508 397.627 201.355 397.901 201.081C398.174 200.808 398.328 200.437 398.328 200.05V187.567C398.328 187.18 398.174 186.809 397.901 186.536C397.627 186.262 397.256 186.109 396.87 186.108Z" fill="#2596BE"/>
<path d="M423.094 100.976H410.604C410.219 100.977 409.849 101.131 409.577 101.405C409.304 101.678 409.152 102.048 409.152 102.434V114.923C409.152 115.308 409.305 115.678 409.577 115.95C409.85 116.223 410.219 116.376 410.604 116.376H423.094C423.48 116.376 423.85 116.223 424.123 115.951C424.396 115.679 424.551 115.309 424.552 114.923V102.434C424.551 102.047 424.397 101.677 424.124 101.404C423.85 101.131 423.48 100.977 423.094 100.976Z" fill="#2596BE"/>
<path d="M423.094 122.259H410.604C410.219 122.26 409.849 122.414 409.577 122.688C409.304 122.961 409.152 123.331 409.152 123.717V136.206C409.152 136.592 409.305 136.961 409.577 137.234C409.85 137.506 410.219 137.659 410.604 137.659H423.094C423.48 137.659 423.85 137.506 424.123 137.234C424.396 136.962 424.551 136.592 424.552 136.206V123.717C424.551 123.331 424.397 122.96 424.124 122.687C423.85 122.414 423.48 122.26 423.094 122.259Z" fill="#2596BE"/>
<path d="M423.094 143.542H410.604C410.219 143.543 409.849 143.698 409.577 143.971C409.304 144.244 409.152 144.614 409.152 145V157.484C409.151 157.675 409.188 157.865 409.261 158.041C409.334 158.218 409.441 158.379 409.576 158.514C409.711 158.65 409.871 158.757 410.047 158.831C410.224 158.904 410.413 158.942 410.604 158.942H423.094C423.48 158.942 423.851 158.788 424.125 158.515C424.398 158.242 424.552 157.871 424.552 157.484V145C424.551 144.614 424.397 144.244 424.124 143.97C423.85 143.697 423.48 143.543 423.094 143.542Z" fill="#E6E6E6"/>
<path d="M423.094 164.825H410.604C410.219 164.827 409.849 164.981 409.577 165.254C409.304 165.527 409.152 165.898 409.152 166.283V178.767C409.151 178.958 409.188 179.148 409.261 179.325C409.334 179.501 409.441 179.662 409.576 179.798C409.711 179.933 409.871 180.04 410.047 180.114C410.224 180.187 410.413 180.225 410.604 180.225H423.094C423.48 180.225 423.851 180.072 424.125 179.798C424.398 179.525 424.552 179.154 424.552 178.767V166.283C424.551 165.897 424.397 165.527 424.124 165.254C423.85 164.98 423.48 164.826 423.094 164.825Z" fill="#2596BE"/>
<path d="M423.094 186.108H410.604C410.413 186.109 410.224 186.146 410.047 186.22C409.871 186.293 409.711 186.401 409.576 186.536C409.441 186.672 409.334 186.832 409.261 187.009C409.188 187.186 409.151 187.375 409.152 187.567V200.05C409.151 200.242 409.188 200.431 409.261 200.608C409.334 200.785 409.441 200.945 409.576 201.081C409.711 201.216 409.871 201.324 410.047 201.397C410.224 201.47 410.413 201.508 410.604 201.509H423.094C423.48 201.508 423.851 201.355 424.125 201.081C424.398 200.808 424.552 200.437 424.552 200.05V187.567C424.552 187.18 424.398 186.809 424.125 186.536C423.851 186.262 423.48 186.109 423.094 186.108Z" fill="#2596BE"/>
<path d="M449.318 100.976H436.828C436.443 100.977 436.073 101.131 435.801 101.405C435.529 101.678 435.376 102.048 435.376 102.434V114.923C435.376 115.308 435.529 115.678 435.801 115.95C436.074 116.223 436.443 116.376 436.828 116.376H449.318C449.704 116.376 450.074 116.223 450.347 115.951C450.62 115.679 450.775 115.309 450.776 114.923V102.434C450.775 102.047 450.621 101.677 450.348 101.404C450.074 101.131 449.704 100.977 449.318 100.976Z" fill="#E6E6E6"/>
<path d="M449.318 122.259H436.828C436.443 122.26 436.073 122.414 435.801 122.688C435.528 122.961 435.376 123.331 435.376 123.717V136.206C435.376 136.592 435.529 136.961 435.801 137.234C436.074 137.506 436.443 137.659 436.828 137.659H449.318C449.704 137.659 450.074 137.506 450.347 137.234C450.62 136.962 450.775 136.592 450.776 136.206V123.717C450.775 123.331 450.621 122.96 450.348 122.687C450.074 122.414 449.704 122.26 449.318 122.259Z" fill="#2596BE"/>
<path d="M449.318 143.542H436.828C436.443 143.543 436.073 143.698 435.801 143.971C435.528 144.244 435.376 144.614 435.376 145V157.484C435.375 157.675 435.412 157.865 435.485 158.041C435.558 158.218 435.665 158.379 435.8 158.514C435.935 158.65 436.095 158.757 436.271 158.831C436.448 158.904 436.637 158.942 436.828 158.942H449.318C449.704 158.942 450.075 158.788 450.349 158.515C450.622 158.242 450.776 157.871 450.776 157.484V145C450.775 144.614 450.621 144.244 450.348 143.97C450.074 143.697 449.704 143.543 449.318 143.542Z" fill="#2596BE"/>
<path d="M449.318 164.825H436.828C436.443 164.827 436.073 164.981 435.801 165.254C435.528 165.527 435.376 165.898 435.376 166.283V178.767C435.375 178.958 435.412 179.148 435.485 179.325C435.558 179.501 435.665 179.662 435.8 179.798C435.935 179.933 436.095 180.04 436.271 180.114C436.448 180.187 436.637 180.225 436.828 180.225H449.318C449.704 180.225 450.075 180.072 450.349 179.798C450.622 179.525 450.776 179.154 450.776 178.767V166.283C450.775 165.897 450.621 165.527 450.348 165.254C450.074 164.98 449.704 164.826 449.318 164.825Z" fill="#2596BE"/>
<path d="M449.318 186.108H436.828C436.637 186.109 436.448 186.146 436.271 186.22C436.095 186.293 435.935 186.401 435.8 186.536C435.665 186.672 435.558 186.832 435.485 187.009C435.412 187.186 435.375 187.375 435.376 187.567V200.05C435.375 200.242 435.412 200.431 435.485 200.608C435.558 200.785 435.665 200.945 435.8 201.081C435.935 201.216 436.095 201.324 436.271 201.397C436.448 201.47 436.637 201.508 436.828 201.509H449.318C449.704 201.508 450.075 201.355 450.349 201.081C450.622 200.808 450.776 200.437 450.776 200.05V187.567C450.776 187.18 450.622 186.809 450.349 186.536C450.075 186.262 449.704 186.109 449.318 186.108Z" fill="#E6E6E6"/>
<path d="M475.542 100.976H463.052C462.667 100.977 462.297 101.131 462.025 101.405C461.752 101.678 461.6 102.048 461.6 102.434V114.923C461.6 115.308 461.753 115.678 462.025 115.95C462.298 116.223 462.667 116.376 463.052 116.376H475.542C475.928 116.376 476.298 116.223 476.571 115.951C476.844 115.679 476.999 115.309 477 114.923V102.434C476.999 102.047 476.845 101.677 476.572 101.404C476.298 101.131 475.928 100.977 475.542 100.976Z" fill="#E6E6E6"/>
<path d="M475.542 122.259H463.052C462.667 122.26 462.297 122.414 462.025 122.688C461.752 122.961 461.6 123.331 461.6 123.717V136.206C461.6 136.592 461.753 136.961 462.025 137.234C462.298 137.506 462.667 137.659 463.052 137.659H475.542C475.928 137.659 476.298 137.506 476.571 137.234C476.844 136.962 476.999 136.592 477 136.206V123.717C476.999 123.331 476.845 122.96 476.572 122.687C476.298 122.414 475.928 122.26 475.542 122.259Z" fill="#E6E6E6"/>
<path d="M475.542 143.542H463.052C462.667 143.543 462.297 143.698 462.025 143.971C461.752 144.244 461.6 144.614 461.6 145V157.484C461.599 157.675 461.636 157.865 461.709 158.041C461.782 158.218 461.889 158.379 462.024 158.514C462.159 158.65 462.319 158.757 462.495 158.831C462.672 158.904 462.861 158.942 463.052 158.942H475.542C475.928 158.942 476.299 158.788 476.573 158.515C476.846 158.242 477 157.871 477 157.484V145C476.999 144.614 476.845 144.244 476.572 143.97C476.298 143.697 475.928 143.543 475.542 143.542Z" fill="#2596BE"/>
<path d="M475.542 164.825H463.052C462.667 164.827 462.297 164.981 462.025 165.254C461.752 165.527 461.6 165.898 461.6 166.283V178.767C461.599 178.958 461.636 179.148 461.709 179.325C461.782 179.501 461.889 179.662 462.024 179.798C462.159 179.933 462.319 180.04 462.495 180.114C462.672 180.187 462.861 180.225 463.052 180.225H475.542C475.928 180.225 476.299 180.072 476.573 179.798C476.846 179.525 477 179.154 477 178.767V166.283C476.999 165.897 476.845 165.527 476.572 165.254C476.298 164.98 475.928 164.826 475.542 164.825Z" fill="#E6E6E6"/>
<path d="M475.542 186.108H463.052C462.861 186.109 462.672 186.146 462.495 186.22C462.319 186.293 462.159 186.401 462.024 186.536C461.889 186.672 461.782 186.832 461.709 187.009C461.636 187.186 461.599 187.375 461.6 187.567V200.05C461.599 200.242 461.636 200.431 461.709 200.608C461.782 200.785 461.889 200.945 462.024 201.081C462.159 201.216 462.319 201.324 462.495 201.397C462.672 201.47 462.861 201.508 463.052 201.509H475.542C475.928 201.508 476.299 201.355 476.573 201.081C476.846 200.808 477 200.437 477 200.05V187.567C477 187.18 476.846 186.809 476.573 186.536C476.299 186.262 475.928 186.109 475.542 186.108Z" fill="#E6E6E6"/>
<path d="M188.489 370.171H188.142L188.439 370.132L188.489 370.171Z" fill="#2F2E41"/>
<path d="M158.608 137.432C179.77 137.432 196.925 120.277 196.925 99.1156C196.925 77.954 179.77 60.7992 158.608 60.7992C137.447 60.7992 120.292 77.954 120.292 99.1156C120.292 120.277 137.447 137.432 158.608 137.432Z" fill="#FFB6B6"/>
<path d="M192.163 71.0226C192.163 71.0226 202.185 51.8645 180.137 50.1228C180.137 50.1228 161.341 33.0725 142.183 47.0057C142.183 47.0057 131.733 47.0058 126.019 58.8311C126.019 58.8311 117.8 55.714 115.994 64.056C115.994 64.056 109.98 81.4726 115.994 97.1475C122.008 112.822 124.005 114.564 124.005 114.564C124.005 114.564 114.123 81.7008 138.177 79.9591C162.231 78.2174 189.148 63.1852 191.153 82.3433C193.158 101.501 196.174 106.222 196.174 106.222C196.174 106.222 215.214 78.8601 192.163 71.0226Z" fill="#2F2E41"/>
<path d="M257.724 193.545L246.076 255.073L238.236 296.506L238.101 297.224L237.03 302.871L236.705 304.576L231.809 340.817L239.447 348.455L234.893 353.009L231.904 370.131L231.91 370.17L109.914 370.17C104.979 366.973 100.115 363.678 95.3217 360.283L96.3256 352.768C96.3256 352.768 99.7802 339.347 98.3277 337.743C96.8808 336.139 93.7065 333.274 93.7065 333.274L98.2604 322.646L97.3295 303.337L96.9593 295.687L96.8976 294.459L95.7143 269.962L95.6919 269.559L95.333 262.133L94.9965 255.073L93.4094 222.298L92.4335 202.064L91.5811 184.448L95.0077 183.287L131.657 170.832L146.839 151.096L178.435 151.332L193.903 151.45L219.712 175.385L225.584 178.19L225.629 178.212L257.601 193.483L257.724 193.545Z" fill="#CACACA"/>
<path d="M150.922 312.687C148.607 313.584 146.123 313.962 143.645 313.795C141.168 313.628 138.757 312.92 136.583 311.721C134.408 310.522 132.524 308.86 131.061 306.854C129.598 304.847 128.593 302.544 128.117 300.107L68.3564 291.629L89.1308 268.129L142.695 279.783C146.842 279.254 151.039 280.265 154.491 282.624C157.943 284.982 160.409 288.525 161.423 292.581C162.437 296.637 161.928 300.923 159.993 304.629C158.058 308.335 154.83 311.202 150.922 312.687Z" fill="#FFB6B6"/>
<path d="M124.277 269.962C123.17 268.559 121.603 267.592 119.852 267.231L95.333 262.133L92.8149 261.612C91.3515 261.306 89.9691 260.695 88.7581 259.819C87.5472 258.942 86.535 257.82 85.7877 256.525C85.0126 255.166 84.5437 253.654 84.4137 252.095C84.2968 250.677 84.4666 249.25 84.9128 247.9L93.4094 222.298L98.9221 205.687C99.5903 203.683 99.9846 201.599 100.094 199.49C100.401 193.653 98.5957 187.901 95.0077 183.287C91.8533 179.232 87.478 176.299 82.5285 174.922C77.579 173.544 72.3176 173.795 67.5218 175.638C67.3816 175.688 67.2357 175.744 67.0955 175.8C63.6562 177.174 60.5833 179.328 58.1198 182.093C55.6563 184.859 53.8697 188.159 52.9011 191.733L46.9116 213.521L34.5567 258.438C33.3199 262.938 33.07 267.652 33.8242 272.258C34.5784 276.863 36.3187 281.252 38.9262 285.123C41.5337 288.993 44.9467 292.255 48.9316 294.684C52.9165 297.114 57.3793 298.653 62.0145 299.198L97.3295 303.337L113.672 305.255C115.561 305.482 117.467 304.989 119.01 303.874C120.552 302.758 121.618 301.103 121.994 299.237C122.021 299.136 122.041 299.033 122.056 298.929L125.774 276.103L125.808 275.896C125.981 274.855 125.934 273.789 125.671 272.767C125.407 271.745 124.932 270.79 124.277 269.962Z" fill="#CACACA"/>
<path d="M188.987 313.341C191.406 313.902 193.918 313.926 196.348 313.412C198.777 312.897 201.064 311.857 203.047 310.363C205.03 308.869 206.662 306.958 207.827 304.765C208.992 302.572 209.662 300.151 209.79 297.671L267.758 280.85L243.877 260.515L192.492 279.606C188.311 279.667 184.299 281.259 181.214 284.081C178.13 286.903 176.187 290.758 175.755 294.917C175.323 299.075 176.432 303.247 178.87 306.643C181.309 310.039 184.909 312.422 188.987 313.341Z" fill="#FFB6B6"/>
<path d="M296.539 243.222L268.969 179.771C266.714 174.562 262.686 170.32 257.601 167.798C256.029 167.024 254.378 166.422 252.677 166.003C252.413 165.936 252.15 165.874 251.886 165.823C248.279 165.036 244.537 165.105 240.961 166.025C237.693 166.865 234.638 168.384 231.996 170.484C229.354 172.584 227.184 175.217 225.629 178.212C225.612 178.237 225.597 178.263 225.584 178.29C223.846 181.652 222.922 185.375 222.886 189.16C222.85 192.944 223.703 196.684 225.376 200.078L225.718 200.763L245.201 239.891C245.867 241.229 246.241 242.693 246.301 244.186C246.361 245.679 246.105 247.168 245.549 248.555C244.992 249.942 244.149 251.195 243.075 252.234C242 253.272 240.718 254.071 239.313 254.579L213.335 263.962C211.489 264.62 209.97 265.97 209.099 267.727C208.227 269.483 208.071 271.509 208.664 273.378L208.725 273.574L215.624 295.648C215.657 295.749 215.691 295.85 215.73 295.951C215.791 296.141 215.866 296.327 215.954 296.506C216.688 298.15 217.983 299.479 219.609 300.253C221.234 301.027 223.082 301.196 224.821 300.729L238.101 297.224L275.104 287.449C279.617 286.256 283.818 284.103 287.421 281.136C291.024 278.169 293.943 274.458 295.979 270.258C298.014 266.058 299.118 261.468 299.215 256.802C299.312 252.135 298.399 247.503 296.539 243.222Z" fill="#CACACA"/>
<path d="M25.1798 296.506C33.1269 306.199 41.6976 315.364 50.8373 323.941H304.312C306.754 323.945 309.095 324.917 310.821 326.645C312.547 328.372 313.518 330.714 313.521 333.156L313.885 397.387C329.479 390.222 344.082 381.075 357.332 370.17C361.011 367.147 364.576 363.993 368.027 360.709C370.287 358.567 372.493 356.372 374.644 354.125C390.776 337.32 403.838 317.819 413.24 296.506L25.1798 296.506Z" fill="#3F3D56"/>
<path d="M374.644 354.125C372.497 356.374 370.291 358.568 368.027 360.709L314.07 360.709V354.125L374.644 354.125Z" fill="white"/>
<path d="M257.22 143.542C256.953 143.05 256.559 142.639 256.078 142.353C255.597 142.067 255.048 141.916 254.488 141.916H70.6287C69.8044 141.918 69.0146 142.247 68.4322 142.83C67.8498 143.413 67.5225 144.204 67.5218 145.028V255.073H257.601V145.028C257.604 144.508 257.473 143.996 257.22 143.542Z" fill="#3F3D56"/>
<path d="M67.3553 252.093V265.673C67.3553 266.236 67.4662 266.793 67.6816 267.313C67.897 267.834 68.2128 268.306 68.6109 268.704C69.0089 269.102 69.4815 269.418 70.0016 269.633C70.5217 269.849 71.0792 269.96 71.6421 269.96H141.799V296.76H140.867C140.794 296.76 140.721 296.774 140.654 296.802C140.586 296.83 140.525 296.871 140.473 296.923C140.422 296.974 140.381 297.036 140.353 297.103C140.325 297.171 140.31 297.243 140.31 297.316V299.18C140.31 299.254 140.325 299.326 140.353 299.394C140.381 299.461 140.422 299.522 140.473 299.574C140.525 299.626 140.586 299.667 140.654 299.695C140.721 299.723 140.794 299.737 140.867 299.737H184.42C184.493 299.737 184.565 299.723 184.633 299.695C184.7 299.667 184.762 299.626 184.813 299.574C184.865 299.522 184.906 299.461 184.934 299.394C184.962 299.326 184.976 299.254 184.976 299.18V297.316C184.976 297.243 184.962 297.171 184.934 297.103C184.906 297.036 184.865 296.974 184.813 296.923C184.762 296.871 184.7 296.83 184.633 296.802C184.565 296.774 184.493 296.76 184.42 296.76H183.488V269.96H253.644C254.207 269.96 254.765 269.849 255.285 269.633C255.805 269.418 256.278 269.102 256.676 268.704C257.074 268.306 257.39 267.834 257.605 267.313C257.82 266.793 257.931 266.236 257.931 265.673V252.093H67.3553Z" fill="#3F3D56"/>
<path d="M160.34 213.118C170.037 213.118 177.898 205.257 177.898 195.561C177.898 185.864 170.037 178.003 160.34 178.003C150.644 178.003 142.783 185.864 142.783 195.561C142.783 205.257 150.644 213.118 160.34 213.118Z" fill="#2596BE"/>
<path d="M205.074 97.0219H202.27C202.27 75.8228 181.29 61.9313 160.125 61.9201C157.046 61.9111 153.974 62.2098 150.955 62.8118C147.557 63.4904 144.029 64.3036 140.563 65.3635C126.896 69.5529 114.221 77.6511 114.221 97.0219C114.218 100.784 114.697 104.531 115.646 108.171L112.932 108.878C111.925 105.006 111.416 101.022 111.417 97.0219C111.417 80.0963 118.366 68.4705 130.367 61.5387C136.677 57.8934 144.377 55.5435 153.198 54.3995C156.87 53.9111 160.581 53.7983 164.275 54.063C188.614 55.8127 205.074 74.4769 205.074 97.0219Z" fill="#2596BE"/>
<path d="M209.746 98.5753L208.641 90.4098C208.369 88.3477 207.375 86.4484 205.837 85.0483C204.85 84.1356 203.668 83.4593 202.38 83.0707C201.093 82.682 199.734 82.5912 198.406 82.805L196.651 83.0462C196.171 83.1094 195.708 83.2674 195.289 83.511C194.87 83.7545 194.504 84.0788 194.211 84.4651C193.916 84.85 193.701 85.2896 193.576 85.7583C193.452 86.2271 193.422 86.7158 193.488 87.1963L196.04 106.006C196.145 106.773 196.488 107.487 197.022 108.048C197.555 108.608 198.251 108.987 199.012 109.13C199.237 109.175 199.466 109.198 199.696 109.197C199.861 109.197 200.026 109.186 200.19 109.164L202.153 108.9C203.349 108.741 204.501 108.339 205.537 107.719C206.573 107.099 207.471 106.274 208.176 105.294C208.327 105.081 208.473 104.862 208.608 104.638C209.659 102.803 210.06 100.667 209.746 98.5753Z" fill="#2596BE"/>
<path d="M195.518 83.3883C195.003 83.6385 194.555 84.0076 194.211 84.4651C193.916 84.85 193.701 85.2896 193.576 85.7583C193.452 86.2271 193.422 86.7158 193.488 87.1963L196.04 106.006C196.145 106.773 196.488 107.487 197.022 108.048C197.555 108.608 198.251 108.987 199.012 109.13L195.518 83.3883Z" fill="white"/>
<path d="M209.746 98.5753L208.641 90.4098C208.369 88.3477 207.375 86.4484 205.837 85.0483L208.378 103.763C208.416 104.063 208.493 104.357 208.608 104.638C209.659 102.803 210.06 100.667 209.746 98.5753Z" fill="#3F3D56"/>
<path d="M201.014 104.459C201.782 104.355 202.167 102.529 201.876 100.38C201.584 98.2317 200.726 96.5744 199.959 96.6785C199.192 96.7826 198.806 98.6087 199.097 100.757C199.389 102.906 200.247 104.563 201.014 104.459Z" fill="#3F3D56"/>
<path d="M199.332 94.364C200.099 94.2599 200.485 92.4338 200.193 90.2854C199.902 88.1369 199.044 86.4796 198.276 86.5837C197.509 86.6878 197.123 88.5139 197.415 90.6623C197.706 92.8108 198.565 94.4681 199.332 94.364Z" fill="#3F3D56"/>
<path d="M209.987 98.2897C210.755 98.1856 211.14 96.3596 210.849 94.2111C210.558 92.0627 209.699 90.4054 208.932 90.5095C208.165 90.6136 207.779 92.4396 208.07 94.5881C208.362 96.7365 209.22 98.3938 209.987 98.2897Z" fill="#3F3D56"/>
<path d="M160.125 61.9201C157.046 61.9111 153.974 62.2098 150.955 62.8118C147.557 63.4904 144.029 64.3036 140.563 65.3635C135.151 65.0999 131.169 63.6979 130.367 61.5387C136.677 57.8934 144.377 55.5435 153.198 54.3995C156.87 53.9111 160.581 53.7983 164.275 54.063C164.666 54.2922 165.004 54.6016 165.267 54.9708C165.53 55.3401 165.711 55.7608 165.8 56.2053C166.064 58.157 163.837 60.232 160.125 61.9201Z" fill="#3F3D56"/>
<path d="M124.322 116.482L120.003 98.5305C119.849 97.8828 119.508 97.2951 119.021 96.8411C118.534 96.3871 117.924 96.0871 117.267 95.9788C117.081 95.9499 116.894 95.9349 116.706 95.9339C116.441 95.9348 116.178 95.9668 115.921 96.0292L114.249 96.433C112.098 96.9534 110.24 98.3063 109.085 100.195C107.929 102.083 107.57 104.353 108.086 106.505L110.021 114.559C110.463 116.455 111.515 118.153 113.016 119.393C113.259 119.589 113.514 119.771 113.778 119.937C114.718 120.526 115.767 120.921 116.862 121.098C117.957 121.276 119.077 121.232 120.155 120.969L121.821 120.565C122.261 120.462 122.675 120.27 123.038 119.999C123.576 119.606 123.986 119.062 124.215 118.436C124.443 117.81 124.481 117.13 124.322 116.482Z" fill="#2596BE"/>
<path d="M115.269 113.142C116.022 112.961 116.221 111.105 115.714 108.997C115.206 106.889 114.185 105.327 113.432 105.509C112.679 105.69 112.48 107.546 112.987 109.653C113.494 111.761 114.516 113.323 115.269 113.142Z" fill="#3F3D56"/>
<path d="M109.661 114.825C110.413 114.644 110.613 112.788 110.105 110.68C109.598 108.572 108.576 107.01 107.824 107.191C107.071 107.372 106.872 109.228 107.379 111.336C107.886 113.444 108.908 115.006 109.661 114.825Z" fill="#3F3D56"/>
<path d="M124.597 116.415L120.278 98.4632C120.11 97.7624 119.739 97.1269 119.211 96.6361C118.683 96.1453 118.023 95.821 117.312 95.7039L123.206 120.223C123.788 119.797 124.231 119.208 124.478 118.53C124.726 117.852 124.767 117.116 124.597 116.415Z" fill="white"/>
<path d="M109.062 102.95C108.943 102.451 108.719 101.982 108.406 101.576C107.799 103.148 107.687 104.868 108.086 106.505L110.021 114.559C110.463 116.455 111.515 118.153 113.016 119.393L109.062 102.95Z" fill="#3F3D56"/>
</svg>
