<svg width="477" height="313" viewBox="0 0 477 313" fill="none" xmlns="http://www.w3.org/2000/svg">
<path d="M440.103 150.845H53.3083C48.1237 150.845 43.9057 146.627 43.9057 141.442V9.40252C43.9057 4.21794 48.1237 0 53.3083 0H440.103C445.287 0 449.505 4.21794 449.505 9.40252V141.442C449.505 146.627 445.287 150.845 440.103 150.845ZM53.3083 1.12099C48.7419 1.12099 45.0267 4.83618 45.0267 9.40252V141.442C45.0267 146.009 48.7419 149.724 53.3083 149.724H440.103C444.669 149.724 448.384 146.009 448.384 141.442V9.40252C448.384 4.83618 444.669 1.12099 440.103 1.12099H53.3083Z" fill="#3F3D56"/>
<path d="M477 308.584H0V309.528H477V308.584Z" fill="#E6E6E6"/>
<path d="M477 260.382H0V261.325H477V260.382Z" fill="#E6E6E6"/>
<path d="M217.382 155.701C217.725 160.006 220.224 163.318 222.963 163.1C225.702 162.881 227.645 159.215 227.301 154.909C227.188 153.187 226.664 151.517 225.773 150.04L224.091 131.819L215.558 132.791L218.121 150.649C217.475 152.25 217.222 153.982 217.382 155.701Z" fill="#FFB6B6"/>
<path d="M207.188 70.697C207.188 70.697 215.165 66.4743 219.21 72.7846C223.255 79.0949 226.046 147.342 226.046 147.342L214.836 148.539L212.71 100.447L207.188 70.697Z" fill="#E6E6E6"/>
<path d="M190.632 256.821L197.127 256.82L200.216 231.769L190.631 231.77L190.632 256.821Z" fill="#FFB6B6"/>
<path d="M212.884 256.674C213.086 257.014 213.192 258.114 213.192 258.51C213.192 259.727 212.206 260.714 210.988 260.714H190.875C190.044 260.714 189.371 260.041 189.371 259.21V258.373C189.371 258.373 188.376 255.856 190.425 252.754C190.425 252.754 192.971 255.183 196.775 251.379L197.897 249.346L206.018 255.285L210.519 255.839C211.504 255.961 212.377 255.821 212.884 256.674Z" fill="#2F2E41"/>
<path d="M228.216 255.746L234.508 254.138L231.301 229.101L222.014 231.475L228.216 255.746Z" fill="#FFB6B6"/>
<path d="M249.738 250.096C250.019 250.376 250.394 251.414 250.492 251.798C250.793 252.978 250.082 254.178 248.902 254.479L229.415 259.457C228.61 259.663 227.791 259.177 227.585 258.373L227.378 257.561C227.378 257.561 225.791 255.369 227.008 251.857C227.008 251.857 230.076 253.58 232.821 248.952L233.405 246.705L242.743 250.45L247.241 249.873C248.225 249.746 249.036 249.395 249.738 250.096Z" fill="#2F2E41"/>
<path d="M185.259 65.3118L184.951 63.0771L188.611 54.1383L198.667 53.021L200.838 65.8179L185.259 65.3118Z" fill="#FFB6B6"/>
<path d="M185.259 65.3118L184.951 63.0771L188.611 54.1383L198.667 53.021L200.838 65.8179L185.259 65.3118Z" fill="black"/>
<path d="M173.527 128.442L169.057 140.732L172.409 147.437L189.17 244.645H200.312L198.108 158.61L223.807 244.645H234.835L225.967 186.544L219.338 132.911L215.317 130.427L195.874 119.503L173.527 128.442Z" fill="#2F2E41"/>
<path d="M202.019 136.822L195.315 137.939L186.376 116.71H206.488L202.019 136.822Z" fill="#E6E6E6"/>
<path d="M215.427 131.235L202.019 136.822L197.55 126.766L195.315 137.939L171.851 130.386L175.203 116.71L171.851 72.0158L183.683 64.1273L185.259 63.0771L199.784 64.1944L201.058 64.8872L209.84 69.7811L212.075 106.653L215.427 131.235Z" fill="#2F2E41"/>
<path d="M201.058 64.8872L194.756 91.5693L183.683 64.1273L185.259 63.0771L199.784 64.1944L201.058 64.8872Z" fill="#E6E6E6"/>
<path d="M190.287 63.0771L188.052 66.9257L190.287 68.2086L189.17 91.6387L193.639 97.7147L198.108 88.7346L194.756 68.2086L195.874 63.0771H190.287Z" fill="#2F2E41"/>
<path d="M193.639 60.8424C199.501 60.8424 204.254 56.09 204.254 50.2276C204.254 44.3652 199.501 39.6128 193.639 39.6128C187.777 39.6128 183.024 44.3652 183.024 50.2276C183.024 56.09 187.777 60.8424 193.639 60.8424Z" fill="#FFB6B6"/>
<path d="M186.855 51.1587L189.149 52.1597L190.15 46.154C190.15 46.154 194.154 44.1521 197.156 45.153C200.159 46.154 205.164 45.153 205.164 45.153C205.164 45.153 205.164 35.1435 198.157 35.1435C191.151 35.1435 184.144 36.1444 184.144 39.1473C184.144 42.1501 181.141 45.153 181.141 45.153C181.141 45.153 177.137 51.1587 181.141 55.1625C185.145 59.1664 187.147 59.1664 187.147 59.1664L186.855 51.1587Z" fill="#2F2E41"/>
<path d="M166.259 155.387C166.142 159.704 168.275 163.263 171.022 163.336C173.77 163.41 176.09 159.971 176.206 155.653C176.276 153.928 175.932 152.212 175.203 150.648L175.465 132.352L166.877 132.412L167.53 150.442C166.717 151.965 166.282 153.661 166.259 155.387Z" fill="#FFB6B6"/>
<path d="M176.884 69.7602C176.884 69.7602 169.621 67.5255 166.269 74.2295C162.917 80.9336 167.387 149.092 167.387 149.092H178.661L175.669 101.046L176.884 69.7602Z" fill="#E6E6E6"/>
<path d="M455.49 196.738L428.406 188.447C427.807 188.264 427.178 188.197 426.554 188.25L289.288 199.932C287.331 200.099 286.839 202.739 288.605 203.599L293.002 205.741H292.884V308.284H297.027V207.702L310.808 214.416C311.862 214.929 313.039 215.139 314.206 215.021L315.672 214.873V308.284H319.815V214.455L425.984 203.73V308.284H430.127V203.312L447.735 201.533V308.284H451.878V201.115L455.091 200.79C457.346 200.562 457.657 197.402 455.49 196.738Z" fill="#3F3D56"/>
<path d="M329.137 199.526C331.727 199.526 370.051 194.865 370.051 194.865L375.748 202.634L335.87 210.402L329.137 199.526Z" fill="white"/>
<path d="M371.198 304.302L364.54 304.29L361.417 278.602L371.244 278.619L371.198 304.302Z" fill="#A0616A"/>
<path d="M348.386 304.112C348.179 304.461 348.067 305.587 348.066 305.993C348.064 307.241 349.074 308.255 350.322 308.257L370.943 308.292C371.794 308.294 372.485 307.605 372.487 306.753L372.488 305.895C372.488 305.895 373.513 303.316 371.418 300.133C371.418 300.133 368.804 302.618 364.91 298.711L363.764 296.626L355.428 302.7L350.812 303.26C349.802 303.383 348.907 303.238 348.386 304.112Z" fill="#2F2E41"/>
<path d="M406.934 292.357L401.681 296.319L383.897 277.942L391.65 272.094L406.934 292.357Z" fill="#A0616A"/>
<path d="M388.847 305.814C388.891 306.213 389.476 307.167 389.717 307.488C390.46 308.472 391.86 308.668 392.845 307.926L409.113 295.653C409.785 295.147 409.919 294.191 409.412 293.52L408.901 292.842C408.901 292.842 408.17 290.2 404.621 288.94C404.621 288.94 404.043 292.459 398.645 291.703L396.498 290.743L393.553 300.502L390.25 303.697C389.528 304.396 388.736 304.815 388.847 305.814Z" fill="#2F2E41"/>
<path d="M393.019 159.595C393.019 165.735 388.041 170.713 381.901 170.713C375.761 170.713 370.784 165.735 370.784 159.595C370.784 153.455 375.761 148.477 381.901 148.477C388.041 148.477 393.019 153.455 393.019 159.595Z" fill="#A0616A"/>
<path d="M391.971 223.697C391.971 223.697 351.037 221.38 348.72 226.014C346.403 230.648 361.247 294.301 361.247 294.301L374.489 291.526L368.029 246.867C368.029 246.867 402.187 255.914 406.821 245.101C411.455 234.288 410.121 230.262 410.121 230.262L391.971 223.697Z" fill="#2F2E41"/>
<path d="M402.459 215.919C402.459 215.919 362.37 224.513 361.362 229.594C360.353 234.676 391.506 292.135 391.506 292.135L403.543 285.956L385.499 244.597C385.499 244.597 420.834 244.285 422.442 232.632C424.051 220.978 421.699 217.448 421.699 217.448L402.459 215.919Z" fill="#2F2E41"/>
<path d="M407.032 172.337H387.772L374.594 193.962C374.594 193.962 371.504 207.937 374.594 209.445C377.683 210.954 377.683 227.173 377.683 227.173L410.121 230.262C410.121 230.262 414.755 181.605 413.211 176.971C411.666 172.337 407.032 172.337 407.032 172.337Z" fill="#2596BE"/>
<path d="M376.525 186.625L374.594 209.445L352.876 200.228L347.693 197.621C346.678 196.298 345.36 195.236 343.851 194.526C340.097 192.696 336.112 193.15 334.948 195.538C333.784 197.926 335.882 201.344 339.635 203.172C341.125 203.924 342.773 204.308 344.442 204.291L359.608 212.905L359.626 212.871L359.693 212.991L383.476 222.925L388.948 192.967L376.525 186.625Z" fill="#A0616A"/>
<path d="M374.208 161.138C374.208 161.138 362.623 162.682 367.257 152.642C367.257 152.642 366.55 147.199 369.993 146.831C373.435 146.463 378.069 140.285 378.069 140.285C378.069 140.285 388.694 134.878 394.194 140.285C399.695 145.691 415.914 177.357 415.914 177.357L405.101 188.942C405.101 188.942 398.601 171.853 391.038 173.833C383.476 175.812 376.525 181.714 376.525 181.714C376.525 181.714 368.85 177.873 372.301 174.526C375.752 171.178 374.208 161.138 374.208 161.138Z" fill="#2F2E41"/>
<path d="M389.654 178.129C389.654 178.129 384.248 171.178 380.386 176.584C376.525 181.991 373.435 188.942 373.435 188.942L388.882 194.348L389.654 178.129Z" fill="#2596BE"/>
<path d="M448.304 306.747L430.357 249.705L430.36 249.705H430.401L430.329 249.612L430.327 249.61L429.049 245.547L429.05 245.546C430.997 243.868 432.323 241.471 432.587 238.71L424.383 193.591C424.948 187.666 420.406 182.487 414.455 182.275L395.946 182.228C390.684 182.042 386.126 185.843 385.36 191.053L379.28 232.397C379.073 233.785 379.155 235.152 379.482 236.431L375.401 236.965L374.163 237.131L369.269 237.768L369.253 237.773L368.642 237.85H367.979V254.423H368.021V307.394C368.021 307.735 368.3 308.015 368.642 308.015C368.989 308.015 369.269 307.735 369.269 307.394V254.423H376.53L383.775 307.331C383.822 307.642 384.086 307.87 384.397 307.87C384.422 307.87 384.454 307.87 384.479 307.865C384.821 307.818 385.059 307.502 385.013 307.16L377.793 254.423H412.632C416.091 254.423 419.297 253.325 421.907 251.446L435.72 307.234C435.792 307.517 436.046 307.704 436.324 307.704C436.375 307.704 436.427 307.698 436.479 307.685C436.812 307.6 437.014 307.26 436.929 306.927L422.983 250.599C423.168 250.444 423.354 250.279 423.529 250.109L429.074 249.783L447.114 307.122C447.197 307.388 447.443 307.558 447.709 307.558C447.771 307.558 447.834 307.549 447.896 307.529C448.224 307.426 448.407 307.076 448.304 306.747ZM427.864 246.432C427.91 246.406 427.952 246.375 427.993 246.349L428.127 246.772L427.864 246.432Z" fill="#E6E6E6"/>
<path d="M96.1614 210.059L108.24 202.378L113.15 205.34L96.1614 224.861V210.059Z" fill="#FFB6B6"/>
<path d="M79.6448 180.329C79.6448 180.329 71.6225 182.217 75.3977 193.071C79.1729 203.924 91.4424 226.576 95.2176 225.16C98.9928 223.744 99.4647 209.587 99.4647 209.587C99.4647 209.587 98.9928 210.059 97.1052 208.172C95.2176 206.284 95.2176 207.146 95.2176 205.063C95.2176 202.981 93.6737 201.437 93.6737 201.437L91.9143 197.79C91.9143 197.79 91.9143 180.801 84.8357 179.857C77.7572 178.914 79.6448 180.329 79.6448 180.329Z" fill="#E6E6E6"/>
<path d="M117.126 204.833C120.258 201.7 121.23 197.591 119.294 195.656C117.359 193.721 113.251 194.692 110.118 197.825C106.985 200.958 106.014 205.067 107.949 207.002C109.884 208.937 113.993 207.966 117.126 204.833Z" fill="#FFB6B6"/>
<path d="M48.3976 242.857L56.6392 256.498L104.668 253.656L91.8789 237.173L48.3976 242.857Z" fill="#E6E6E6"/>
<path d="M62.7486 306.658C62.4689 306.658 62.2252 306.451 62.1862 306.167L47.8345 201.35C47.7919 201.039 48.0095 200.752 48.3205 200.71C48.6313 200.665 48.918 200.885 48.9607 201.196L63.3124 306.012C63.355 306.323 63.1374 306.61 62.8265 306.652C62.8002 306.656 62.7743 306.658 62.7486 306.658Z" fill="#E6E6E6"/>
<path d="M48.3976 306.791C48.0837 306.791 47.8293 306.536 47.8293 306.223V201.293C47.8293 200.979 48.0837 200.725 48.3976 200.725C48.7115 200.725 48.966 200.979 48.966 201.293V306.223C48.966 306.536 48.7115 306.791 48.3976 306.791Z" fill="#E6E6E6"/>
<path d="M120.44 306.374C120.198 306.374 119.974 306.218 119.898 305.976L85.9372 198.033C85.8429 197.734 86.0093 197.415 86.3088 197.32C86.6081 197.227 86.9274 197.393 87.0215 197.692L120.982 305.635C121.077 305.934 120.91 306.253 120.611 306.347C120.554 306.365 120.497 306.374 120.44 306.374Z" fill="#E6E6E6"/>
<path d="M110.067 306.507C109.813 306.507 109.582 306.336 109.516 306.079L85.9284 210.812C85.8511 210.507 86.035 210.198 86.3392 210.121C86.6443 210.044 86.9528 210.227 87.0302 210.531L110.618 305.798C110.695 306.102 110.512 306.412 110.207 306.489C110.16 306.501 110.113 306.507 110.067 306.507Z" fill="#E6E6E6"/>
<path d="M48.3976 202.965L87.7582 202.359L95.0051 243.709H48.966L48.3976 202.965Z" fill="#E6E6E6"/>
<path d="M108.885 263.767L98.9654 281.231L110.483 283.767L115.285 271.345L108.885 263.767Z" fill="#FFB6B6"/>
<path d="M102.528 277.934C102.528 277.934 102.143 275.086 99.8768 275.99C97.6107 276.893 91.0707 280.252 91.0707 280.252C91.0707 280.252 108.129 307.969 111.366 306.678C114.603 305.387 110.728 297.552 110.728 297.552L111.583 283.703L102.528 277.934Z" fill="#2F2E41"/>
<path d="M65.0158 229.879C65.0158 229.879 61.4765 246.16 72.3303 251.823C83.1841 257.486 120.228 243.564 120.228 243.564L103.24 269.019L115.038 273.766C115.038 273.766 141.936 238.373 140.048 232.711C138.161 227.048 125.419 226.576 125.419 226.576L96.6333 227.992L89.0829 225.632L65.0158 229.879Z" fill="#2F2E41"/>
<path d="M94.2099 271.518L78.6155 284.175L88.4206 290.728L97.413 280.905L94.2099 271.518Z" fill="#FFB6B6"/>
<path d="M83.1338 282.401C83.1338 282.401 83.8111 279.607 81.3716 279.625C78.932 279.642 71.6181 280.391 71.6181 280.391C71.6181 280.391 77.4209 312.415 80.906 312.39C84.3911 312.365 83.6326 303.657 83.6326 303.657L89.4686 291.069L83.1338 282.401Z" fill="#2F2E41"/>
<path d="M65.6793 223.99C65.6793 223.99 56.4584 237.867 64.5075 247.091C72.5566 256.315 112.127 256.828 112.127 256.828L87.0406 274.356L96.3021 283.07C96.3021 283.07 134.235 259.892 134.538 253.93C134.84 247.969 123.144 242.893 123.144 242.893L95.8161 233.737L89.6419 228.792L65.6793 223.99Z" fill="#2F2E41"/>
<path d="M89.3671 191.849C89.3671 191.849 80.401 188.545 76.1538 188.545C75.748 188.545 75.3469 188.592 74.9458 188.677C72.2276 189.253 69.7265 191.589 68.5279 192.863C68.0607 193.363 67.7917 193.698 67.7917 193.698C67.7917 193.698 67.82 193.373 67.8767 192.802C68.1551 189.801 69.1838 179.952 71.029 173.647C71.6896 171.396 72.4494 169.598 73.3224 168.725C75.3563 166.687 76.2954 164.242 76.7295 162.421C77.0976 160.859 77.0976 159.759 77.0976 159.759L73.6575 158.277L73.0204 154.115C72.9071 154.606 72.3833 155.564 70.6231 157.4C70.4721 157.555 70.3069 157.688 70.1323 157.801C67.5935 159.396 62.4167 156.621 59.6278 154.875C60.7887 150.84 62.8934 147.15 66.7158 146.546C75.6819 145.13 75.6819 139.939 81.3448 145.602C81.812 146.069 82.2838 146.518 82.7558 146.952C84.5679 150.415 85.2285 155.059 85.4645 158.287C85.6344 160.547 85.5919 162.119 85.5919 162.119C85.5919 162.119 87.9514 176.276 91.7266 179.107C95.5019 181.939 89.3671 191.849 89.3671 191.849Z" fill="#2F2E41"/>
<path d="M71.9067 169.197L65.5304 178.55L79.9291 182.41V169.197H71.9067Z" fill="#FFB6B6"/>
<path d="M71.9067 169.197L65.5304 178.55L79.9291 182.41V169.197H71.9067Z" fill="black"/>
<path d="M80.8246 178.206L67.1394 172.543C67.1394 172.543 48.7352 180.565 50.1509 196.138C51.5666 211.711 64.7799 238.609 64.7799 238.609L91.2064 227.284L88.375 197.082L80.8246 178.206Z" fill="#E6E6E6"/>
<path d="M74.9569 173.373C81.625 173.373 87.0306 167.967 87.0306 161.299C87.0306 154.631 81.625 149.226 74.9569 149.226C68.2888 149.226 62.8833 154.631 62.8833 161.299C62.8833 167.967 68.2888 173.373 74.9569 173.373Z" fill="#FFB6B6"/>
<path d="M91.2547 156.928C88.8952 159.287 87.0076 161.647 87.0076 161.647L86.0638 157.872C86.0638 157.872 85.8467 158.032 85.4645 158.287C83.9685 159.306 79.9526 161.869 76.7295 162.421C75.295 162.666 74.0208 162.51 73.1903 161.647C71.4301 159.811 70.9063 158.853 70.793 158.362L70.1559 162.525L66.7158 164.006C66.7158 164.006 66.7158 169.188 70.491 172.972C70.6751 173.156 70.8544 173.383 71.029 173.647C72.8316 176.365 74.1247 183.019 74.9458 188.677C75.6725 193.708 76.0217 197.946 76.0217 197.946C76.0217 197.946 72.4494 193.472 68.5279 192.863C68.3108 192.83 68.0937 192.807 67.8767 192.802C67.8059 192.792 67.7304 192.792 67.6596 192.792C63.4125 192.792 54.4463 196.096 54.4463 196.096C54.4463 196.096 48.3116 186.186 52.0868 183.354C55.862 180.523 58.2215 166.366 58.2215 166.366C58.2215 166.366 58.0658 160.307 59.6278 154.875C60.7887 150.84 62.8934 147.15 66.7158 146.546C75.6819 145.13 75.6819 139.939 81.3448 145.602C81.812 146.069 82.2838 146.518 82.7558 146.952C88.0316 151.803 93.4208 154.762 91.2547 156.928Z" fill="#2F2E41"/>
<path d="M38.3008 220.274H33.8168V308.833H38.3008V220.274Z" fill="#3F3D56"/>
<path d="M147.037 220.274H142.553V308.833H147.037V220.274Z" fill="#3F3D56"/>
<path d="M118.452 182.721H88.7453V212.427H118.452V182.721Z" fill="#2596BE"/>
<path d="M71.6225 214.306L83.7006 206.625L88.611 209.587L71.6225 229.108V214.306Z" fill="#FFB6B6"/>
<path d="M55.1058 184.576C55.1058 184.576 47.0835 186.464 50.8587 197.318C54.6339 208.172 66.9034 230.823 70.6786 229.407C74.4539 227.992 74.9258 213.834 74.9258 213.834C74.9258 213.834 74.4539 214.306 72.5663 212.419C70.6786 210.531 70.6786 211.393 70.6786 209.311C70.6786 207.228 69.1347 205.684 69.1347 205.684L67.3753 202.037C67.3753 202.037 67.3753 185.048 60.2968 184.105C53.2182 183.161 55.1058 184.576 55.1058 184.576Z" fill="#E6E6E6"/>
<path d="M92.5866 209.08C95.7195 205.947 96.6906 201.839 94.7555 199.904C92.8205 197.968 88.7121 198.94 85.5792 202.072C82.4462 205.205 81.4752 209.314 83.4102 211.249C85.3452 213.184 89.4536 212.213 92.5866 209.08Z" fill="#FFB6B6"/>
<path d="M156.005 216.911H20.365V227H156.005V216.911Z" fill="#3F3D56"/>
<path d="M293.814 136.2H273.781C272.193 136.2 270.906 137.488 270.906 139.075V147.337C270.906 148.925 272.193 150.213 273.781 150.213H293.814C295.402 150.213 296.689 148.925 296.689 147.337V139.075C296.689 137.488 295.402 136.2 293.814 136.2Z" fill="#3F3D56"/>
<path d="M335.851 144.462H315.818C314.23 144.462 312.943 145.749 312.943 147.337C312.943 148.925 314.23 150.213 315.818 150.213H335.851C337.439 150.213 338.726 148.925 338.726 147.337C338.726 145.749 337.439 144.462 335.851 144.462Z" fill="#2596BE"/>
</svg>
