<svg width="477" height="403" viewBox="0 0 477 403" fill="none" xmlns="http://www.w3.org/2000/svg">
<g clip-path="url(#clip0_1043_108)">
<path d="M470.578 137.853C471.138 140.04 471.663 142.238 472.152 144.448H305.618V137.853H470.578Z" fill="#E6E6E6"/>
<path d="M465.27 120.468C462.589 112.896 459.463 105.49 455.907 98.288C454.814 96.0674 453.678 93.869 452.5 91.6928C452.306 91.3194 452.1 90.9459 451.893 90.5725V139.653H466.284V123.389L465.27 120.468Z" fill="#E6E6E6"/>
<path d="M455.907 98.2881H451.893V91.6929H452.5C453.68 93.8668 454.816 96.0652 455.907 98.2881Z" fill="#CCCCCC"/>
<path d="M465.27 120.468H451.893V127.063H466.284V123.389L465.27 120.468Z" fill="#CCCCCC"/>
<path d="M444.1 82.7017H429.712V139.654H444.1V82.7017Z" fill="#E6E6E6"/>
<path d="M444.1 91.6941H429.712V98.2886H444.1V91.6941Z" fill="#CCCCCC"/>
<path d="M444.1 120.47H429.712V127.064H444.1V120.47Z" fill="#CCCCCC"/>
<path d="M378.485 82.3701H326.871C326.075 82.3713 325.313 82.6879 324.75 83.2504C324.187 83.8129 323.871 84.5755 323.87 85.371V136.986C323.871 137.279 323.913 137.571 323.996 137.853C324.184 138.469 324.564 139.01 325.081 139.394C325.599 139.778 326.226 139.986 326.871 139.987H378.485C379.13 139.986 379.757 139.778 380.274 139.394C380.792 139.01 381.172 138.469 381.359 137.853C381.443 137.571 381.485 137.279 381.486 136.986V85.371C381.485 84.5755 381.168 83.8129 380.606 83.2504C380.043 82.6879 379.281 82.3713 378.485 82.3701Z" fill="#E6E6E6"/>
<path d="M374.818 86.0378H330.538C329.743 86.039 328.98 86.3556 328.418 86.9181C327.855 87.4806 327.539 88.2432 327.537 89.0387V133.318C327.539 134.113 327.855 134.876 328.418 135.439C328.98 136.001 329.743 136.318 330.538 136.319H374.818C375.613 136.318 376.376 136.001 376.938 135.439C377.501 134.876 377.817 134.113 377.818 133.318V89.0387C377.817 88.2432 377.501 87.4806 376.938 86.9181C376.376 86.3556 375.613 86.039 374.818 86.0378Z" fill="white"/>
<path d="M367.096 93.76H338.261C337.465 93.7612 336.702 94.0778 336.14 94.6403C335.577 95.2028 335.261 95.9654 335.26 96.7609V125.596C335.261 126.391 335.577 127.154 336.14 127.716C336.702 128.279 337.465 128.595 338.261 128.597H367.096C367.89 128.592 368.651 128.275 369.213 127.713C369.775 127.151 370.092 126.39 370.096 125.596V96.7609C370.095 95.9654 369.779 95.2028 369.216 94.6403C368.654 94.0778 367.891 93.7612 367.096 93.76Z" fill="#CCCCCC"/>
<path d="M365.318 120.51L359.227 109.961C359.11 109.758 358.942 109.59 358.739 109.473C358.536 109.356 358.306 109.294 358.072 109.294C357.838 109.294 357.608 109.356 357.405 109.473C357.203 109.59 357.034 109.758 356.917 109.961L352.47 117.664L346.638 107.563C346.521 107.36 346.352 107.192 346.149 107.075C345.947 106.958 345.717 106.896 345.483 106.896C345.248 106.896 345.019 106.958 344.816 107.075C344.613 107.192 344.445 107.36 344.328 107.563L338.237 118.112L330.992 130.662H344.966L343.581 133.06H372.564L365.318 120.51Z" fill="white"/>
<path d="M363.168 104.284C365.486 104.284 367.365 102.405 367.365 100.087C367.365 97.7695 365.486 95.8906 363.168 95.8906C360.85 95.8906 358.972 97.7695 358.972 100.087C358.972 102.405 360.85 104.284 363.168 104.284Z" fill="white"/>
<path d="M476.947 184.453C476.9 181.865 476.798 179.291 476.64 176.73C476.573 175.503 476.493 174.283 476.393 173.063H448.239C447.443 173.064 446.68 173.38 446.118 173.943C445.555 174.506 445.239 175.268 445.238 176.064V227.678C445.236 227.914 445.265 228.15 445.324 228.379C445.482 229.033 445.855 229.616 446.383 230.033C446.912 230.45 447.565 230.678 448.239 230.679H474.193C474.326 229.919 474.453 229.145 474.566 228.379C474.639 227.925 474.713 227.465 474.78 227.011C474.94 225.924 475.093 224.838 475.233 223.751C475.433 222.27 475.613 220.783 475.773 219.289C476.36 213.934 476.738 208.522 476.907 203.051V203.045C476.967 200.984 476.998 198.915 477 196.836V188.834C477 187.367 476.987 185.906 476.947 184.453Z" fill="#E6E6E6"/>
<path d="M476.947 184.453C476.9 181.865 476.798 179.291 476.64 176.73H451.906C451.111 176.732 450.348 177.048 449.786 177.611C449.223 178.173 448.907 178.936 448.905 179.731V224.011C448.907 224.806 449.223 225.569 449.786 226.131C450.348 226.694 451.111 227.01 451.906 227.011H474.78C474.94 225.924 475.093 224.838 475.233 223.751C475.433 222.27 475.613 220.783 475.773 219.289C476.36 213.934 476.738 208.522 476.907 203.051V203.045C476.967 200.984 476.998 198.915 477 196.836V188.834C477 187.367 476.987 185.906 476.947 184.453Z" fill="white"/>
<path d="M476.947 184.453H459.629C458.833 184.454 458.07 184.77 457.508 185.333C456.945 185.895 456.629 186.658 456.628 187.453V216.288C456.629 217.084 456.945 217.846 457.508 218.409C458.07 218.971 458.833 219.288 459.629 219.289H475.773C476.36 213.934 476.738 208.522 476.907 203.051V203.045C476.967 200.984 476.998 198.915 477 196.836V188.834C477 187.367 476.987 185.906 476.947 184.453Z" fill="#CCCCCC"/>
<path d="M476.907 203.051C476.74 208.52 476.362 213.932 475.773 219.289C475.613 220.783 475.433 222.27 475.233 223.751H464.95L466.337 221.357H452.36L456.628 213.961L459.602 208.806L465.697 198.257C465.813 198.053 465.981 197.884 466.184 197.766C466.386 197.648 466.616 197.586 466.851 197.586C467.085 197.586 467.315 197.648 467.518 197.766C467.72 197.884 467.888 198.053 468.004 198.257L473.839 208.36L476.907 203.051Z" fill="white"/>
<path d="M426.379 53.9287H305.618V47.3335H420.391C422.431 49.4874 424.427 51.6858 426.379 53.9287Z" fill="#E6E6E6"/>
<path d="M369.763 8.18896C374.684 10.8964 379.481 13.7972 384.154 16.8914V49.1273H369.763V8.18896Z" fill="#E6E6E6"/>
<path d="M384.151 29.9458H369.763V36.5403H384.151V29.9458Z" fill="#CCCCCC"/>
<path d="M406.333 33.8296V49.1273H391.943V22.313C395.297 24.7604 398.576 27.3055 401.779 29.9485C403.312 31.2155 404.831 32.5092 406.333 33.8296Z" fill="#E6E6E6"/>
<path d="M406.333 33.8296V36.537H391.943V29.9485H401.779C403.312 31.2155 404.831 32.5092 406.333 33.8296Z" fill="#CCCCCC"/>
<path d="M355.072 0.840246C358.88 2.55403 362.623 4.38122 366.302 6.32181L363.341 12.2968L353.505 32.1758L350.578 38.0842L345.996 47.3335L344.989 49.3674L340.888 47.3335L332.099 42.9789L337.68 31.6957H337.687L340.608 25.7874L350.451 5.90835L353.345 0.0666898L353.378 0L355.072 0.840246Z" fill="#E6E6E6"/>
<path d="M366.268 6.38182L363.341 12.2968L350.451 5.90835L353.345 0.0666857L353.378 0L355.072 0.84024L366.268 6.38182Z" fill="#CCCCCC"/>
<path d="M340.608 25.7891L337.682 31.699L350.576 38.0828L353.502 32.1729L340.608 25.7891Z" fill="#CCCCCC"/>
<path d="M474.566 228.378C474.453 229.145 474.326 229.919 474.193 230.679C473.959 232.119 473.706 233.547 473.433 234.974H305.618V228.378H474.566Z" fill="#E6E6E6"/>
<path d="M384.151 173.226H369.763V230.178H384.151V173.226Z" fill="#E6E6E6"/>
<path d="M384.151 182.218H369.763V188.813H384.151V182.218Z" fill="#CCCCCC"/>
<path d="M384.151 210.994H369.763V217.589H384.151V210.994Z" fill="#CCCCCC"/>
<path d="M406.332 173.226H391.944V230.178H406.332V173.226Z" fill="#E6E6E6"/>
<path d="M406.332 182.218H391.944V188.813H406.332V182.218Z" fill="#CCCCCC"/>
<path d="M406.332 210.994H391.944V217.589H406.332V210.994Z" fill="#CCCCCC"/>
<path d="M357.366 172.99L332.096 224.03L344.991 230.414L370.26 179.374L357.366 172.99Z" fill="#E6E6E6"/>
<path d="M353.376 181.049L350.45 186.959L363.344 193.343L366.27 187.433L353.376 181.049Z" fill="#CCCCCC"/>
<path d="M340.608 206.837L337.682 212.747L350.576 219.131L353.502 213.221L340.608 206.837Z" fill="#CCCCCC"/>
<path d="M195.254 253.794C195.856 254.14 196.429 254.533 196.968 254.969L256.338 236.493L259.686 221.763L282.576 223.91L279.183 250.562C278.909 252.715 277.944 254.721 276.433 256.279C274.921 257.837 272.946 258.863 270.802 259.202L200.933 270.264C199.914 272.735 198.166 274.836 195.923 276.289C193.681 277.743 191.048 278.479 188.377 278.399C185.706 278.32 183.122 277.43 180.969 275.846C178.816 274.262 177.196 272.061 176.325 269.534C175.454 267.008 175.373 264.276 176.092 261.702C176.811 259.128 178.297 256.834 180.352 255.125C182.407 253.416 184.934 252.374 187.596 252.136C190.258 251.898 192.929 252.476 195.254 253.794Z" fill="#FFB8B8"/>
<path d="M293.154 232.746L292.761 226.024V226.018L292.654 224.177L291.494 204.385C291.841 200.259 290.539 196.163 287.873 192.995C285.207 189.826 281.395 187.844 277.27 187.48C276.083 187.374 274.888 187.405 273.709 187.573C270.205 188.069 266.971 189.733 264.532 192.297C262.093 194.861 260.592 198.173 260.271 201.698L257.864 211.714L253.656 229.232C253.358 230.458 253.482 231.748 254.007 232.895C254.532 234.042 255.428 234.979 256.551 235.554C257.199 235.895 257.908 236.103 258.638 236.167L265.653 236.794L272.408 237.394L280.204 238.088L280.764 238.135L282.204 238.268L287.026 238.695H287.039C287.845 238.76 288.654 238.653 289.415 238.382C290.176 238.11 290.871 237.681 291.454 237.121C291.878 236.707 292.236 236.23 292.514 235.707C293 234.8 293.222 233.774 293.154 232.746Z" fill="#2596BE"/>
<path d="M358.303 151.238C358.303 174.061 337.199 170.609 311.167 170.609C285.134 170.609 264.03 174.061 264.03 151.238C264.03 128.415 274.338 87.9585 311.167 87.9585C349.263 87.9585 358.303 128.415 358.303 151.238Z" fill="#2F2E41"/>
<path d="M333.437 161.281C345.824 148.894 345.824 128.811 333.437 116.424C321.05 104.038 300.967 104.038 288.581 116.424C276.194 128.811 276.194 148.894 288.581 161.281C300.967 173.668 321.05 173.668 333.437 161.281Z" fill="#FFB8B8"/>
<path d="M355.659 183.906C355.048 183.318 354.4 182.77 353.718 182.265C349.406 179.007 343.987 177.573 338.627 178.271L280.177 185.666C274.823 186.331 269.939 189.055 266.559 193.26C263.179 197.465 261.57 202.821 262.072 208.193C262.239 210.06 262.426 212.027 262.632 214.074C262.899 216.642 263.199 219.336 263.546 222.123C264.119 226.811 264.82 231.759 265.653 236.794C266.38 241.129 267.207 245.523 268.154 249.865C268.427 251.118 268.712 252.367 269.007 253.612C269.007 253.616 269.007 253.62 269.008 253.623C269.01 253.627 269.012 253.63 269.014 253.632C269.047 253.786 269.081 253.939 269.121 254.086C269.119 254.097 269.121 254.109 269.128 254.119C269.541 255.853 269.975 257.567 270.428 259.261C270.601 259.887 270.768 260.508 270.941 261.121C271.408 262.788 271.902 264.422 272.408 266.029C276.216 277.986 281.251 288.169 287.9 293.584C287.986 293.664 288.073 293.73 288.166 293.804L288.433 294.01L288.82 293.89L290.46 293.404L291.861 292.977L310.106 287.489L314.647 286.122L329.238 281.727H329.245L342.589 277.712L344.216 277.219L355.679 273.771L356.046 269.49L356.539 263.809L356.833 260.394L359.153 233.467L360.507 217.755L361.974 200.697C362.247 197.604 361.821 194.489 360.728 191.583C359.634 188.676 357.902 186.053 355.659 183.906Z" fill="#2F2E41"/>
<path d="M388.342 314.203C388.188 313.756 388.041 313.309 387.888 312.869C381.033 292.864 370.923 277.733 356.046 269.49C356.039 269.49 356.039 269.484 356.032 269.484L355.779 269.344L342.815 273.831L341.215 274.385L339.548 274.965L339.527 274.972L327.391 279.173L327.371 279.18L317.848 282.474H317.841L309.032 285.521H309.026L306.978 286.235L291.581 291.563L289.793 292.183L288.193 292.737L287.946 292.824L287.899 293.584L286.799 312.869L286.726 314.203L285.352 338.27L239.732 402.895H270.941C281.399 402.897 291.841 402.101 302.177 400.514L331.458 368.959C331.704 368.705 332.014 368.522 332.355 368.432C332.697 368.341 333.056 368.345 333.396 368.444C333.735 368.543 334.04 368.733 334.28 368.992C334.519 369.252 334.683 369.573 334.753 369.919L339.054 391.258C360.244 383.765 380.067 372.858 397.737 358.969C395.683 342.398 392.683 327.293 388.342 314.203Z" fill="#2F2E41"/>
<path d="M274.361 135.741H286.906L292.441 120.244L293.548 135.741H299.544L302.772 126.701L303.418 135.741H347.972C347.972 131.332 347.104 126.966 345.416 122.892C343.729 118.818 341.255 115.117 338.138 111.999C335.02 108.881 331.318 106.408 327.244 104.72C323.171 103.033 318.804 102.164 314.395 102.164H307.938C299.033 102.164 290.492 105.702 284.196 111.999C277.899 118.296 274.361 126.836 274.361 135.741Z" fill="#2F2E41"/>
<path d="M197.196 303.792C195.148 304.652 192.936 305.053 190.716 304.966C188.496 304.88 186.322 304.307 184.347 303.289C182.373 302.272 180.645 300.833 179.287 299.076C177.928 297.318 176.971 295.284 176.484 293.116L122.825 287.039L140.812 265.5L189.01 274.573C192.705 273.995 196.484 274.793 199.63 276.816C202.777 278.838 205.072 281.945 206.081 285.546C207.09 289.148 206.743 292.995 205.105 296.357C203.468 299.72 200.653 302.365 197.196 303.792Z" fill="#A0616A"/>
<path d="M168.265 263.922L145.585 259.868L143.939 259.574C142.622 259.339 141.371 258.828 140.266 258.075C139.161 257.322 138.228 256.343 137.529 255.204C136.829 254.065 136.378 252.79 136.206 251.464C136.034 250.138 136.144 248.791 136.53 247.511L147.666 210.507L148 209.406C149.39 204.703 149.142 199.667 147.297 195.123C145.452 190.579 142.119 186.795 137.843 184.393C134.949 182.786 131.723 181.868 128.417 181.71C125.11 181.553 121.811 182.161 118.778 183.486C115.744 184.811 113.057 186.818 110.925 189.351C108.794 191.884 107.275 194.874 106.488 198.09L92.2838 256.06L91.757 258.207C90.7649 262.252 90.6567 266.463 91.4398 270.554C92.2229 274.644 93.8788 278.518 96.2947 281.911C98.7107 285.303 101.83 288.135 105.439 290.213C109.049 292.29 113.064 293.565 117.211 293.951C117.257 293.957 117.297 293.957 117.344 293.964L125.847 294.717L136.876 295.698L150.747 296.931L163.691 298.085C165.386 298.239 167.077 297.75 168.429 296.714C169.78 295.679 170.693 294.174 170.986 292.497C171.006 292.403 171.02 292.31 171.033 292.217L173.78 271.704L173.807 271.518C174.044 269.781 173.599 268.02 172.566 266.604C171.533 265.188 169.992 264.227 168.265 263.922Z" fill="#CCCCCC"/>
<path d="M133.323 108.499C124.269 126.299 117.134 144.658 97.1635 144.658C87.5734 144.658 78.376 140.849 71.5947 134.067C64.8135 127.286 61.0038 118.089 61.0038 108.499C61.0038 88.5281 77.1945 72.5889 97.1635 72.3388C117.459 72.0847 150.175 75.3667 133.323 108.499Z" fill="#2F2E41"/>
<path d="M156.035 341.364L155.215 333.175L154.601 333.208L46.7773 338.403L47.0573 346.692L47.5311 360.89C64.2152 373.599 82.743 383.685 102.473 390.798L103.174 385.37C103.235 384.928 103.447 384.52 103.774 384.216C104.101 383.912 104.524 383.731 104.969 383.703C105.415 383.674 105.857 383.801 106.22 384.061C106.583 384.321 106.845 384.699 106.961 385.13L109.088 393.059C126.276 398.602 144.124 401.833 162.164 402.668L156.035 341.364Z" fill="#2F2E41"/>
<path d="M121.371 136.072C133.758 123.686 133.758 103.602 121.371 91.2156C108.985 78.8287 88.9015 78.8287 76.5146 91.2156C64.1278 103.602 64.1278 123.686 76.5146 136.072C88.9015 148.459 108.985 148.459 121.371 136.072Z" fill="#A0616A"/>
<path d="M162.23 333.729L155.942 314.203L155.835 313.87L155.515 312.869L153.721 307.308C153.141 305.501 152.587 303.687 152.074 301.866C151.6 300.226 151.158 298.581 150.747 296.931C150.16 294.637 149.627 292.335 149.147 290.023C147.519 282.254 146.434 274.382 145.899 266.463C145.752 264.269 145.648 262.07 145.585 259.868C145.195 246.365 146.41 232.865 149.207 219.649C151.641 208.222 150.341 196.314 145.498 185.681C140.655 175.048 132.525 166.251 122.306 160.586C115.6 156.88 108.178 154.654 100.539 154.057C100.013 154.017 99.4857 153.984 98.9523 153.951C90.8834 153.441 82.803 154.75 75.3076 157.781C67.8122 160.812 61.0932 165.487 55.6466 171.462C52.7294 174.64 50.1957 178.15 48.0976 181.919C42.2763 192.407 40.0909 204.528 41.8826 216.389L49.3779 266.716L47.6711 287.902L45.6572 312.869L45.5504 314.203L43.4029 340.824C43.3012 342.065 43.6017 343.306 44.2598 344.362C44.9179 345.419 45.8988 346.236 47.0573 346.692C47.7358 346.964 48.4605 347.102 49.1914 347.099C49.2982 347.099 49.3981 347.099 49.5049 347.093L156.035 341.364L157.009 341.311C157.898 341.265 158.764 341.015 159.54 340.581C160.317 340.146 160.983 339.539 161.488 338.806C161.993 338.074 162.322 337.235 162.451 336.354C162.58 335.474 162.504 334.575 162.23 333.729Z" fill="#CCCCCC"/>
<path d="M132.601 95.7183C125.353 100.714 116.75 103.373 107.947 103.337C111.087 105.515 114.662 106.985 118.425 107.648C106.721 110.159 94.625 110.227 82.8934 107.848C80.2857 107.43 77.7695 106.566 75.4551 105.293C73.2026 103.926 71.3182 101.748 70.8639 99.1528C70.0843 94.6994 73.5545 90.6533 77.1608 87.9264C82.6823 83.8152 89.0487 80.9826 95.7992 79.6337C102.55 78.2847 109.516 78.4531 116.193 80.1267C120.553 81.2537 124.921 83.158 127.753 86.6595C130.585 90.1611 131.424 95.5593 128.726 99.165L132.601 95.7183Z" fill="#2F2E41"/>
<path d="M134.223 297.193C132.194 298.098 129.991 298.547 127.77 298.508C125.549 298.469 123.363 297.944 121.367 296.969C119.371 295.994 117.612 294.594 116.216 292.866C114.819 291.138 113.819 289.125 113.285 286.969L59.5066 282.055L77.0232 260.131L125.406 268.158C129.088 267.501 132.884 268.217 136.073 270.171C139.262 272.125 141.624 275.18 142.711 278.759C143.798 282.338 143.534 286.192 141.97 289.589C140.405 292.987 137.649 295.692 134.223 297.193Z" fill="#A0616A"/>
<path d="M104.441 257.96L92.2838 256.06L80.0202 254.139C78.6994 253.933 77.4373 253.449 76.3166 252.721C75.196 251.992 74.2422 251.034 73.5179 249.911C72.7936 248.787 72.3152 247.523 72.1142 246.201C71.9131 244.88 71.994 243.531 72.3514 242.242L82.9944 203.898C84.2823 199.166 83.9254 194.137 81.9823 189.633C80.0391 185.13 76.6246 181.421 72.298 179.111C69.3752 177.552 66.1293 176.695 62.8177 176.608C59.5061 176.521 56.2198 177.207 53.2193 178.611C50.2096 179.993 47.5619 182.055 45.4847 184.634C43.4075 187.214 41.9575 190.24 41.2491 193.475L27.8253 253.899C26.9211 257.975 26.908 262.198 27.787 266.28C28.6661 270.361 30.4164 274.204 32.9184 277.547C35.4204 280.889 38.6149 283.651 42.2833 285.644C45.9517 287.638 50.0075 288.815 54.173 289.096L100.606 292.21C102.304 292.326 103.983 291.8 105.312 290.737C106.641 289.674 107.522 288.15 107.781 286.468C107.802 286.375 107.808 286.282 107.821 286.188L110.122 265.622L110.142 265.436C110.34 263.695 109.858 261.944 108.795 260.551C107.732 259.158 106.172 258.229 104.441 257.96Z" fill="#CCCCCC"/>
<path d="M310.151 226.084L307.368 227.602L273.084 246.309L270.301 247.827C268.95 248.566 267.948 249.81 267.514 251.287C267.08 252.763 267.249 254.352 267.985 255.704L293.516 302.496C294.255 303.846 295.499 304.848 296.975 305.282C298.452 305.716 300.041 305.547 301.393 304.811L301.4 304.807L341.235 283.072L341.242 283.068C342.593 282.33 343.595 281.085 344.029 279.609C344.463 278.132 344.294 276.543 343.558 275.192L318.027 228.4C317.288 227.049 316.044 226.047 314.568 225.613C313.091 225.179 311.502 225.348 310.151 226.084Z" fill="#E6E6E6"/>
<path d="M310.951 227.551L307.655 229.35L274.397 247.496L271.101 249.294C270.14 249.82 269.426 250.706 269.117 251.758C268.808 252.809 268.928 253.941 269.452 254.903L294.983 301.695C295.509 302.657 296.395 303.37 297.447 303.68C298.498 303.989 299.629 303.868 300.592 303.344L300.599 303.34L340.435 281.605L340.442 281.601C341.403 281.075 342.117 280.189 342.426 279.138C342.735 278.086 342.615 276.955 342.091 275.992L316.56 229.2C316.034 228.239 315.148 227.525 314.097 227.216C313.045 226.907 311.914 227.027 310.951 227.551Z" fill="white"/>
<path d="M311.886 240.762C311.763 240.537 311.555 240.371 311.309 240.298C311.063 240.226 310.798 240.254 310.573 240.375L309.246 241.102L295.715 248.484C295.491 248.608 295.325 248.815 295.254 249.061C295.182 249.307 295.211 249.57 295.333 249.795C295.456 250.02 295.662 250.187 295.907 250.26C296.152 250.333 296.417 250.306 296.642 250.185L311.5 242.076C311.724 241.952 311.891 241.744 311.963 241.498C312.036 241.252 312.008 240.988 311.886 240.762Z" fill="#E6E6E6"/>
<path d="M316.948 241.716C316.887 241.604 316.806 241.506 316.707 241.427C316.609 241.347 316.495 241.288 316.374 241.253C316.252 241.217 316.125 241.206 315.999 241.221C315.873 241.235 315.751 241.274 315.641 241.335L297.282 251.352C297.171 251.412 297.073 251.495 296.993 251.593C296.914 251.692 296.855 251.806 296.819 251.927C296.783 252.049 296.772 252.177 296.786 252.303C296.799 252.429 296.838 252.551 296.899 252.662C296.959 252.773 297.042 252.871 297.14 252.951C297.239 253.03 297.353 253.09 297.474 253.125C297.596 253.161 297.724 253.172 297.85 253.158C297.976 253.145 298.098 253.106 298.209 253.045L299.063 252.579L304.404 249.664H304.411L316.561 243.029C316.673 242.969 316.773 242.887 316.853 242.789C316.934 242.69 316.994 242.576 317.03 242.454C317.066 242.331 317.077 242.203 317.063 242.076C317.049 241.95 317.01 241.827 316.948 241.716Z" fill="#E6E6E6"/>
<path d="M296.996 257.68L291.167 246.99C291.106 246.883 291.006 246.804 290.887 246.77C290.769 246.737 290.642 246.751 290.534 246.81L287.706 248.351L286.239 249.151L278.364 253.446L276.836 254.279C276.729 254.34 276.65 254.44 276.616 254.559C276.583 254.678 276.597 254.805 276.656 254.913L277.03 255.6L282.485 265.602C282.544 265.709 282.643 265.788 282.761 265.822C282.878 265.856 283.004 265.841 283.111 265.782L292.514 260.654L293.981 259.854L296.809 258.314C296.863 258.285 296.911 258.245 296.949 258.197C296.988 258.15 297.017 258.095 297.034 258.036C297.052 257.977 297.057 257.915 297.051 257.854C297.044 257.793 297.025 257.734 296.996 257.68Z" fill="#E6E6E6"/>
<path d="M319.255 254.326C319.133 254.102 318.926 253.935 318.681 253.862C318.436 253.79 318.173 253.818 317.948 253.939L297.796 264.936C297.618 265.033 297.475 265.184 297.387 265.367C297.3 265.55 297.273 265.756 297.309 265.956C297.323 266.059 297.357 266.159 297.409 266.249C297.46 266.341 297.525 266.425 297.602 266.496L297.609 266.503C297.758 266.637 297.945 266.722 298.145 266.746C298.344 266.769 298.546 266.731 298.723 266.636L318.875 255.64C318.987 255.579 319.085 255.496 319.164 255.397C319.244 255.298 319.303 255.184 319.338 255.062C319.373 254.94 319.384 254.812 319.37 254.686C319.356 254.559 319.317 254.437 319.255 254.326Z" fill="#E6E6E6"/>
<path d="M324.323 255.279C324.262 255.168 324.179 255.07 324.08 254.991C323.981 254.911 323.867 254.852 323.745 254.817C323.623 254.782 323.495 254.771 323.369 254.785C323.243 254.799 323.121 254.838 323.009 254.899L299.356 267.803C299.178 267.897 299.035 268.045 298.947 268.227C298.86 268.408 298.833 268.612 298.869 268.81V268.817C298.883 268.92 298.917 269.02 298.969 269.11C299.021 269.205 299.088 269.291 299.169 269.363C299.317 269.5 299.504 269.587 299.704 269.611C299.904 269.635 300.107 269.595 300.283 269.497L323.936 256.593C324.161 256.47 324.328 256.262 324.401 256.016C324.473 255.77 324.445 255.505 324.323 255.279Z" fill="#E6E6E6"/>
<path d="M291.046 275.639C293.311 275.639 295.147 273.803 295.147 271.538C295.147 269.273 293.311 267.437 291.046 267.437C288.781 267.437 286.944 269.273 286.944 271.538C286.944 273.803 288.781 275.639 291.046 275.639Z" fill="#E6E6E6"/>
<path d="M322.154 208.079L319.371 209.597L285.087 228.304L282.304 229.822C280.954 230.561 279.952 231.805 279.518 233.281C279.084 234.758 279.253 236.347 279.989 237.699L305.519 284.49C306.258 285.841 307.502 286.843 308.979 287.277C310.455 287.711 312.044 287.542 313.396 286.806L313.403 286.802L353.238 265.067L353.246 265.063C354.596 264.324 355.598 263.08 356.032 261.604C356.466 260.127 356.297 258.538 355.561 257.186L330.031 210.395C329.292 209.044 328.048 208.042 326.571 207.608C325.094 207.174 323.506 207.343 322.154 208.079Z" fill="#CCCCCC"/>
<path d="M322.954 209.546L319.658 211.344L286.401 229.491L283.105 231.289C282.143 231.815 281.429 232.701 281.12 233.753C280.811 234.804 280.932 235.935 281.456 236.898L306.986 283.69C307.512 284.652 308.398 285.365 309.45 285.674C310.502 285.984 311.633 285.863 312.596 285.339L312.603 285.335L352.438 263.6L352.445 263.596C353.407 263.07 354.12 262.184 354.43 261.132C354.739 260.081 354.618 258.95 354.094 257.987L328.564 211.195C328.038 210.234 327.152 209.52 326.1 209.211C325.048 208.902 323.917 209.022 322.954 209.546Z" fill="white"/>
<path d="M323.89 222.757C323.766 222.532 323.559 222.366 323.313 222.293C323.066 222.221 322.802 222.248 322.576 222.37L315.734 226.105L313.827 227.145L307.719 230.479C307.495 230.603 307.329 230.81 307.257 231.056C307.186 231.301 307.214 231.565 307.337 231.79C307.459 232.015 307.665 232.182 307.911 232.255C308.156 232.328 308.42 232.301 308.645 232.18L315.848 228.252L317.355 227.425L323.503 224.071C323.728 223.947 323.894 223.739 323.967 223.493C324.039 223.247 324.011 222.983 323.89 222.757Z" fill="#CCCCCC"/>
<path d="M328.951 223.71C328.891 223.599 328.809 223.501 328.711 223.421C328.612 223.342 328.499 223.283 328.377 223.248C328.256 223.212 328.128 223.201 328.002 223.216C327.877 223.23 327.755 223.269 327.644 223.33L318.101 228.538L316.634 229.339L309.285 233.346C309.174 233.407 309.076 233.49 308.997 233.588C308.917 233.687 308.858 233.801 308.822 233.922C308.787 234.044 308.775 234.171 308.789 234.298C308.803 234.424 308.841 234.546 308.902 234.657C308.963 234.768 309.045 234.866 309.144 234.946C309.243 235.025 309.356 235.084 309.478 235.12C309.6 235.156 309.727 235.167 309.853 235.153C309.979 235.14 310.101 235.101 310.212 235.04L317.561 231.032L319.028 230.232L328.564 225.024C328.677 224.964 328.776 224.882 328.857 224.783C328.937 224.685 328.997 224.571 329.033 224.448C329.069 224.326 329.081 224.198 329.067 224.071C329.052 223.944 329.013 223.822 328.951 223.71Z" fill="#CCCCCC"/>
<path d="M308.999 239.675L304.351 231.153L303.551 229.686L303.17 228.985C303.11 228.878 303.009 228.799 302.891 228.765C302.772 228.731 302.645 228.746 302.537 228.805L293.101 233.953L288.84 236.274C288.733 236.335 288.653 236.435 288.62 236.554C288.586 236.673 288.6 236.8 288.66 236.908L289.04 237.601L289.453 238.368L289.84 239.068V239.075L294.488 247.597C294.547 247.704 294.647 247.783 294.764 247.817C294.882 247.851 295.008 247.836 295.115 247.777L308.812 240.309C308.866 240.28 308.914 240.24 308.953 240.192C308.991 240.145 309.02 240.09 309.038 240.031C309.055 239.972 309.061 239.91 309.054 239.849C309.047 239.788 309.029 239.729 308.999 239.675Z" fill="#2596BE"/>
<path d="M331.259 236.321C331.136 236.097 330.93 235.93 330.685 235.857C330.44 235.785 330.176 235.812 329.951 235.934L323.93 239.222L322.463 240.022L316.648 243.189L309.799 246.931C309.687 246.991 309.589 247.074 309.509 247.173C309.429 247.272 309.369 247.385 309.333 247.507C309.298 247.629 309.286 247.757 309.3 247.884C309.313 248.01 309.351 248.133 309.412 248.244C309.473 248.356 309.555 248.455 309.654 248.534C309.753 248.614 309.867 248.674 309.989 248.71C310.111 248.746 310.239 248.757 310.365 248.744C310.492 248.73 310.614 248.692 310.726 248.631L323.39 241.722L324.857 240.922L330.878 237.635C330.99 237.573 331.088 237.491 331.168 237.392C331.247 237.293 331.306 237.179 331.341 237.057C331.377 236.935 331.388 236.807 331.373 236.68C331.359 236.554 331.32 236.432 331.259 236.321Z" fill="#CCCCCC"/>
<path d="M336.327 237.274C336.265 237.163 336.183 237.065 336.084 236.986C335.984 236.906 335.871 236.847 335.749 236.812C335.627 236.777 335.499 236.766 335.372 236.78C335.246 236.794 335.124 236.833 335.013 236.894L325.497 242.089L324.03 242.889L311.36 249.798C311.248 249.858 311.149 249.94 311.069 250.039C310.989 250.138 310.929 250.252 310.893 250.374C310.857 250.496 310.846 250.623 310.859 250.75C310.873 250.876 310.911 250.999 310.972 251.11C311.033 251.222 311.116 251.32 311.215 251.4C311.314 251.479 311.428 251.539 311.55 251.574C311.672 251.609 311.8 251.62 311.926 251.606C312.053 251.592 312.175 251.553 312.286 251.492L324.95 244.583L326.417 243.783L335.94 238.588C336.165 238.465 336.332 238.257 336.404 238.011C336.477 237.765 336.449 237.5 336.327 237.274Z" fill="#CCCCCC"/>
<path d="M303.049 257.634C305.314 257.634 307.151 255.798 307.151 253.533C307.151 251.267 305.314 249.431 303.049 249.431C300.784 249.431 298.948 251.267 298.948 253.533C298.948 255.798 300.784 257.634 303.049 257.634Z" fill="#CCCCCC"/>
<path d="M305.804 276.591C306.495 276.659 307.179 276.781 307.85 276.957L354.363 235.695L351.356 220.892L373.102 213.433L380.974 239.121C381.61 241.196 381.555 243.421 380.818 245.463C380.082 247.505 378.703 249.252 376.889 250.444L317.756 289.267C317.843 291.939 317.115 294.573 315.668 296.82C314.222 299.067 312.125 300.821 309.658 301.848C307.19 302.874 304.469 303.126 301.855 302.568C299.241 302.01 296.859 300.67 295.026 298.725C293.192 296.78 291.995 294.324 291.591 291.682C291.188 289.04 291.599 286.338 292.769 283.935C293.939 281.532 295.813 279.542 298.142 278.231C300.47 276.919 303.143 276.347 305.804 276.591Z" fill="#FFB8B8"/>
<path d="M386.381 217.129L373.204 191.962C371.848 188.134 369.057 184.983 365.422 183.174C361.786 181.364 357.59 181.039 353.718 182.265C353.572 182.305 353.432 182.352 353.285 182.405C349.362 183.777 346.143 186.649 344.335 190.391C342.528 194.132 342.278 198.439 343.642 202.364L348.93 230.179C349.082 230.975 349.403 231.729 349.873 232.39C350.342 233.051 350.949 233.602 351.651 234.007C352.419 234.456 353.283 234.712 354.172 234.754C354.903 234.8 355.635 234.698 356.326 234.454L359.153 233.467L377.305 227.145L383.24 225.078C384.006 224.81 384.704 224.381 385.289 223.819C385.874 223.257 386.331 222.576 386.629 221.822C386.927 221.067 387.059 220.258 387.016 219.448C386.973 218.638 386.757 217.847 386.381 217.129Z" fill="#2596BE"/>
<path d="M436.124 314.203H0.666857C0.489995 314.203 0.320377 314.133 0.195317 314.008C0.0702574 313.883 0 313.713 0 313.536C0 313.359 0.0702574 313.19 0.195317 313.065C0.320377 312.939 0.489995 312.869 0.666857 312.869H436.124C436.301 312.869 436.471 312.939 436.596 313.065C436.721 313.19 436.791 313.359 436.791 313.536C436.791 313.713 436.721 313.883 436.596 314.008C436.471 314.133 436.301 314.203 436.124 314.203Z" fill="#3F3D56"/>
<path d="M75.6856 301.866V302.2C75.688 304.46 76.3464 306.672 77.581 308.566C78.8157 310.46 80.5734 311.955 82.6411 312.869C84.1242 313.532 85.7311 313.873 87.3556 313.87H195.053V301.866H75.6856Z" fill="#3F3D56"/>
<path d="M270.248 222.757C268.539 219.229 265.907 216.229 262.632 214.075C261.148 213.092 259.546 212.299 257.864 211.714C255.573 210.914 253.163 210.506 250.736 210.507H147.373C141.627 210.513 136.118 212.799 132.055 216.862C127.992 220.925 125.707 226.434 125.7 232.18V292.197C125.698 293.039 125.747 293.881 125.847 294.718C125.993 295.969 126.247 297.205 126.607 298.412C126.963 299.601 127.423 300.757 127.98 301.866C129.776 305.473 132.542 308.508 135.968 310.629C139.394 312.749 143.344 313.872 147.373 313.87H250.736C253.582 313.871 256.401 313.311 259.031 312.222C261.661 311.133 264.05 309.537 266.063 307.524C268.076 305.512 269.672 303.122 270.761 300.492C271.85 297.862 272.41 295.043 272.408 292.197V232.18C272.413 228.915 271.674 225.693 270.248 222.757Z" fill="#3F3D56"/>
<path d="M204.722 267.523C207.669 267.523 210.057 265.134 210.057 262.188C210.057 259.242 207.669 256.853 204.722 256.853C201.776 256.853 199.388 259.242 199.388 262.188C199.388 265.134 201.776 267.523 204.722 267.523Z" fill="white"/>
</g>
<defs>
<clipPath id="clip0_1043_108">
<rect width="477" height="402.895" fill="white"/>
</clipPath>
</defs>
</svg>
