<svg width="18" height="19" viewBox="0 0 18 19" fill="none" xmlns="http://www.w3.org/2000/svg">
<path id="Vector" d="M0.704948 6.75273C0.155499 5.90198 -0.0841064 4.88792 0.0264587 3.88121C0.137026 2.87451 0.591013 1.93662 1.31201 1.2254L1.9204 0.603725C2.19913 0.331272 2.57341 0.178726 2.96317 0.178726C3.35293 0.178726 3.72722 0.331272 4.00594 0.603725L6.61751 3.24186C6.88912 3.51834 7.04131 3.89041 7.04131 4.27799C7.04131 4.66556 6.88912 5.03764 6.61751 5.31411C6.34466 5.59289 6.19186 5.96746 6.19186 6.35754C6.19186 6.74763 6.34466 7.1222 6.61751 7.40098L10.762 11.5455C10.8983 11.6838 11.0608 11.7936 11.2399 11.8685C11.419 11.9435 11.6113 11.9821 11.8054 11.9821C11.9996 11.9821 12.1919 11.9435 12.371 11.8685C12.5501 11.7936 12.7126 11.6838 12.8489 11.5455C13.1253 11.2739 13.4974 11.1217 13.885 11.1217C14.2726 11.1217 14.6446 11.2739 14.9211 11.5455L17.5486 14.173C17.8211 14.4517 17.9736 14.826 17.9736 15.2158C17.9736 15.6055 17.8211 15.9798 17.5486 16.2585L16.927 16.8669C16.2159 17.5876 15.2783 18.0415 14.272 18.1522C13.2656 18.263 12.2518 18.024 11.401 17.4753C7.18514 14.6151 3.5547 10.9756 0.704948 6.75273Z" fill="white"/>
</svg>
