<svg width="18" height="19" viewBox="0 0 18 19" fill="none" xmlns="http://www.w3.org/2000/svg">
<g id="location-pin-3--navigation-map-maps-pin-gps-location">
<path id="Union" fill-rule="evenodd" clip-rule="evenodd" d="M9 0.165771C12.3758 0.165771 15.1876 2.97761 15.1876 6.35207C15.1876 7.45415 14.8091 8.54078 14.2799 9.5244C13.7482 10.5132 13.0452 11.435 12.3474 12.2204C11.7391 12.9036 11.0848 13.5445 10.3892 14.1387C10.162 14.3334 9.92753 14.5193 9.68622 14.6962C9.60483 14.7553 9.52108 14.8112 9.43517 14.8635C9.36389 14.9059 9.28891 14.9417 9.21115 14.9704C9.03895 15.026 8.85184 15.0121 8.68972 14.9318C8.64648 14.9113 8.60437 14.8885 8.56355 14.8635C8.47714 14.8099 8.39295 14.7528 8.3112 14.6923C8.07028 14.5146 7.83622 14.3278 7.60953 14.1323C6.9147 13.5349 6.2609 12.8914 5.65257 12.2062C4.95476 11.4183 4.2518 10.4939 3.72137 9.50895C3.19222 8.5279 2.81241 7.44514 2.81241 6.35207C2.81241 2.97761 5.62425 0.165771 9 0.165771ZM9 8.1996C8.75738 8.1996 8.51714 8.15181 8.29298 8.05896C8.06883 7.96611 7.86516 7.83003 7.6936 7.65847C7.52205 7.48691 7.38596 7.28324 7.29311 7.05909C7.20027 6.83494 7.15248 6.59469 7.15248 6.35207C7.15248 6.10945 7.20027 5.86921 7.29311 5.64506C7.38596 5.42091 7.52205 5.21724 7.6936 5.04568C7.86516 4.87412 8.06883 4.73803 8.29298 4.64519C8.51714 4.55234 8.75738 4.50455 9 4.50455C9.48999 4.50455 9.95992 4.6992 10.3064 5.04568C10.6529 5.39216 10.8475 5.86208 10.8475 6.35207C10.8475 6.84207 10.6529 7.31199 10.3064 7.65847C9.95992 8.00495 9.48999 8.1996 9 8.1996ZM12.9912 13.2413C13.2281 12.9748 13.465 12.6954 13.6993 12.4045H15.4283C15.6858 12.4045 15.9176 12.559 16.0206 12.7946L17.9479 17.2943C17.9899 17.3923 18.0069 17.4991 17.9974 17.6053C17.9879 17.7114 17.9522 17.8136 17.8935 17.9025C17.8348 17.9915 17.755 18.0645 17.6611 18.1149C17.5672 18.1654 17.4623 18.1918 17.3557 18.1917H0.644309C0.537728 18.1918 0.432792 18.1654 0.338918 18.1149C0.245043 18.0645 0.165168 17.9915 0.106461 17.9025C0.0477538 17.8136 0.0120516 17.7114 0.00255868 17.6053C-0.00693425 17.4991 0.0100791 17.3923 0.0520718 17.2943L1.9807 12.7946C2.03038 12.6787 2.11298 12.58 2.21826 12.5106C2.32354 12.4413 2.44687 12.4044 2.57294 12.4045H4.31747C4.54535 12.6877 4.77709 12.962 5.00884 13.2233C5.86114 14.1838 6.72117 14.9949 7.39066 15.5678C7.7254 15.8549 8.01766 16.0854 8.24168 16.2476C8.3524 16.3287 8.45411 16.3969 8.54037 16.4497C8.6153 16.5002 8.69731 16.5392 8.7837 16.5656C8.95953 16.6234 9.15106 16.6095 9.31672 16.527C9.36822 16.5038 9.41585 16.4755 9.45834 16.451C9.5602 16.3886 9.65942 16.3221 9.75575 16.2514C9.97977 16.0892 10.2707 15.8601 10.6068 15.5755C11.2762 15.0065 12.1389 14.1992 12.9899 13.2413H12.9912Z" fill="white"/>
</g>
</svg>
