<svg width="18" height="16" viewBox="0 0 18 16" fill="none" xmlns="http://www.w3.org/2000/svg">
<g id="mail-send-envelope--envelope-email-message-unopened-sealed-close">
<path id="Subtract" fill-rule="evenodd" clip-rule="evenodd" d="M0 2.71444C0 2.20295 0.203188 1.71241 0.564865 1.35074C0.926543 0.989058 1.41708 0.78587 1.92857 0.78587H16.0714C16.5829 0.78587 17.0735 0.989058 17.4351 1.35074C17.7968 1.71241 18 2.20295 18 2.71444V3.15416L9.49243 8.82673C9.34392 8.9161 9.1733 8.96198 9 8.95916C8.8267 8.96198 8.65608 8.9161 8.50757 8.82673L0 3.15416V2.71444ZM0 5.0853V13.643C0 14.1545 0.203188 14.645 0.564865 15.0067C0.926543 15.3684 1.41708 15.5716 1.92857 15.5716H16.0714C16.5829 15.5716 17.0735 15.3684 17.4351 15.0067C17.7968 14.645 18 14.1545 18 13.643V5.0853L10.3796 10.1664L10.3731 10.1716C9.96291 10.4325 9.48615 10.5695 9 10.5663C8.51786 10.5663 8.03186 10.4352 7.62686 10.1716L7.62043 10.1664L0 5.0853Z" fill="white"/>
</g>
</svg>
